<?xml version="1.0" encoding="UTF-8" standalone="no"?>
<svg
   xmlns:dc="http://purl.org/dc/elements/1.1/"
   xmlns:cc="http://creativecommons.org/ns#"
   xmlns:rdf="http://www.w3.org/1999/02/22-rdf-syntax-ns#"
   xmlns:svg="http://www.w3.org/2000/svg"
   xmlns="http://www.w3.org/2000/svg"
   xmlns:sodipodi="http://sodipodi.sourceforge.net/DTD/sodipodi-0.dtd"
   xmlns:inkscape="http://www.inkscape.org/namespaces/inkscape"
   version="1.1"
   viewBox="0 0 90.000001 90.001099"
   xml:space="preserve"
   x="0px"
   y="0px"
   id="svg2"
   inkscape:version="0.91 r13725"
   sodipodi:docname="logo-attachment.svg"
   width="90"
   height="90.001099"><metadata
     id="metadata14"><rdf:RDF><cc:Work
         rdf:about=""><dc:format>image/svg+xml</dc:format><dc:type
           rdf:resource="http://purl.org/dc/dcmitype/StillImage" /><dc:title></dc:title></cc:Work></rdf:RDF></metadata><defs
     id="defs12" /><sodipodi:namedview
     pagecolor="#ffffff"
     bordercolor="#666666"
     borderopacity="1"
     objecttolerance="10"
     gridtolerance="10"
     guidetolerance="10"
     inkscape:pageopacity="0"
     inkscape:pageshadow="2"
     inkscape:window-width="867"
     inkscape:window-height="480"
     id="namedview10"
     showgrid="false"
     fit-margin-top="0"
     fit-margin-left="0"
     fit-margin-right="0"
     fit-margin-bottom="0"
     inkscape:zoom="1.888"
     inkscape:cx="34.533141"
     inkscape:cy="32.499995"
     inkscape:window-x="0"
     inkscape:window-y="27"
     inkscape:window-maximized="0"
     inkscape:current-layer="svg2" /><path
     d="m 31.5625,0.00109781 c -2.134252,-0.033291 -4.237613,0.6925656 -5.9375,1.90624999 -2.100803,1.5006185 -3.682744,3.812329 -3.6875,6.5 l 0,0.125 c 0.914385,-0.01268 1.835297,-0.02428 2.75,-0.03125 l 0,-0.03125 c 0.0016,-0.0063 -0.0016,-0.02411 0,-0.03125 -0.0016,-1.610003 0.986878,-3.178534 2.53125,-4.28125 1.544531,-1.1030323 3.587427,-1.6569796 5.34375,-1.3125 0.01649,0.00317 0.0146,-0.00317 0.03125,0 1.543263,0.2460342 3.024167,1.0527617 4.09375,2.1875 0.01427,0.01427 0.01619,0.01841 0.03125,0.03125 1.656293,1.617137 1.819121,4.372077 2,7.2187502 0.07704,9.703134 0.612889,19.353717 0.28125,28.90625 -0.04724,1.357627 -0.875509,2.560943 -2.15625,3.34375 -1.2809,0.782649 -2.935374,1.050328 -4.3125,0.625 -2.503462,-0.773454 -3.99883,-3.493073 -3.90625,-6.28125 0.29708,-8.949971 -0.298766,-17.836072 -0.15625,-26.59375 l 0,-0.03125 c 0.0079,-0.838134 0.572022,-1.511378 1.5625,-1.9375 0.99032,-0.4259622 2.258133,-0.4145082 3.0625,0.0625 0.02108,0.01268 0.04078,0.02031 0.0625,0.03125 0.632999,0.332273 1.020334,0.865992 1.3125,1.65625 0.292007,0.790259 0.427057,1.793764 0.46875,2.75 l 0.1875,18.5 c 0,0.362552 0.148961,0.744454 0.40625,1 0.257131,0.255546 0.606198,0.40958 0.96875,0.40625 0.362552,-0.0032 0.716058,-0.177357 0.96875,-0.4375 0.252534,-0.259985 0.413543,-0.606357 0.40625,-0.96875 l -0.1875,-18.5625 0,-0.0625 c -0.04867,-1.10652 -0.1751,-2.345328 -0.625,-3.5625 C 36.620051,9.9290588 35.808959,8.7446108 34.5,8.0323478 c -0.01871,-0.0111 -0.04458,-0.02079 -0.0625,-0.03125 l 0,-0.03125 c -1.721605,-0.990478 -3.773302,-0.917201 -5.46875,-0.1875 -1.713363,0.736993 -3.226855,2.3286122 -3.25,4.4375002 -0.0016,0.0032 0,0.02805 0,0.03125 -0.144259,8.907327 0.447306,17.771512 0.15625,26.53125 -0.12698,3.830177 1.944139,7.795351 5.84375,9 2.248709,0.694666 4.654149,0.260035 6.5625,-0.90625 1.908192,-1.166126 3.384731,-3.170503 3.46875,-5.59375 0.337505,-9.71867 -0.20484,-19.415941 -0.28125,-29.03125 l 0,-0.0625 C 41.292467,9.4135788 41.30098,5.7151648 38.6875,3.1260978 c -0.0079,-0.00634 -0.02396,0.00793 -0.03125,0 L 38.625,3.0948478 C 37.145149,1.5425466 35.211515,0.50642481 33.09375,0.15734781 l -0.03125,0 c -0.01268,-0.00317 -0.01682,0.00317 -0.03125,0 -0.49191,-0.093214 -0.976364,-0.1484822 -1.46875,-0.15625 z M 16.53125,10.751098 c -0.662643,0 -1.312643,0.250144 -1.78125,0.71875 -0.468923,0.468607 -0.75,1.149856 -0.75,1.8125 l 0,74.1875 c 0,0.662803 0.281235,1.312802 0.75,1.78125 0.468607,0.468606 1.118607,0.75 1.78125,0.75 l 55.125,0 c 0.662802,0 1.312643,-0.281394 1.78125,-0.75 0.468606,-0.468448 0.75,-1.118447 0.75,-1.78125 l 0,-57.5625 c -0.07213,-0.740956 -0.339434,-1.498379 -0.78125,-1.9375 l -17.25,-16.53125 c -0.452913,-0.431036 -1.062268,-0.675294 -1.6875,-0.6875 -3.651358,-0.0032 -7.313271,0 -10.96875,0 0.08053,1.687681 0.154546,3.373709 0.21875,5.0625 l 8.15625,0 0,14 c 0,0.662803 0.281394,1.312644 0.75,1.78125 0.468607,0.468765 1.118606,0.75 1.78125,0.75 l 14.71875,0 0,52.59375 -50.0625,0 0,-69.125 4.375,0 0,-5.0625 -6.90625,0 z m 40.40625,8.5625 8.3125,7.96875 -8.3125,0 0,-7.96875 z M 27.625,62.157348 c -1.402362,0 -2.53125,1.128888 -2.53125,2.53125 0,1.402362 1.128888,2.53125 2.53125,2.53125 l 32.9375,0 c 1.402362,0 2.53125,-1.128888 2.53125,-2.53125 0,-1.402362 -1.128888,-2.53125 -2.53125,-2.53125 l -32.9375,0 z m 0,9.5 c -1.402362,0 -2.53125,1.128888 -2.53125,2.53125 0,1.402362 1.128888,2.53125 2.53125,2.53125 l 32.9375,0 c 1.402362,0 2.53125,-1.128888 2.53125,-2.53125 0,-1.402362 -1.128888,-2.53125 -2.53125,-2.53125 l -32.9375,0 z"
     style="color:#000000;text-indent:0;text-transform:none;direction:ltr;block-progression:tb;baseline-shift:baseline;display:inline;overflow:visible;visibility:visible;fill:#000000;fill-opacity:1;stroke:none;marker:none;enable-background:accumulate"
     visibility="visible"
     display="inline"
     overflow="visible"
     id="path4"
     inkscape:connector-curvature="0" /><text
     x="-19.90625"
     y="110.00111"
     font-size="5px"
     font-weight="bold"
     id="text6"
     style="font-weight:bold;font-size:5px;font-family:'Helvetica Neue', Helvetica, Arial-Unicode, Arial, Sans-serif;fill:#000000">Created by Aha-Soft</text>
<text
     x="-19.90625"
     y="115.00111"
     font-size="5px"
     font-weight="bold"
     id="text8"
     style="font-weight:bold;font-size:5px;font-family:'Helvetica Neue', Helvetica, Arial-Unicode, Arial, Sans-serif;fill:#000000">from the Noun Project</text>
</svg>