<svg xmlns="http://www.w3.org/2000/svg" xmlns:xlink="http://www.w3.org/1999/xlink" version="1.0" x="0px" y="0px" viewBox="0 0 26 26" style="enable-background:new 0 0 26 26;" xml:space="preserve"><g><path d="M25,20c-0.553,0-1,0.447-1,1v3H2v-3c0-0.553-0.448-1-1-1s-1,0.447-1,1v4c0,0.553,0.448,1,1,1h24c0.553,0,1-0.447,1-1v-4   C26,20.447,25.553,20,25,20z"></path><path d="M12.695,11.863c0.091,0.072,0.203,0.109,0.315,0.109c0.111,0,0.222-0.036,0.315-0.109c0.091-0.071,2.207-2.023,3.564-4.031   c0.104-0.155,0.114-0.354,0.026-0.519c-0.089-0.165-0.261-0.268-0.448-0.268H14.69c0,0-0.314-5.359-0.443-5.539   c-0.188-0.266-0.729-0.447-1.239-0.447c-0.511,0-1.124,0.181-1.313,0.447c-0.128,0.181-0.37,5.539-0.37,5.539H9.553   c-0.188,0-0.361,0.103-0.449,0.268c-0.088,0.164-0.078,0.364,0.027,0.52C10.488,9.84,12.606,11.792,12.695,11.863z"></path><path d="M5.692,16.841L4.11,17.654c-0.166,0.085-0.273,0.256-0.276,0.443c-0.003,0.187,0.097,0.36,0.261,0.45   c2.125,1.165,5.051,2.069,5.164,2.091h0c0.116,0.022,0.231,0.004,0.331-0.047c0.1-0.051,0.182-0.135,0.231-0.242   c0.047-0.104,0.887-2.944,1.176-5.349c0.022-0.186-0.061-0.368-0.214-0.474c-0.153-0.106-0.354-0.119-0.521-0.033l-1.577,0.81   c0,0-2.712-5.336-8.575-2.324C3.767,11.861,5.692,16.841,5.692,16.841z"></path><path d="M15.217,14.526c-0.153,0.106-0.236,0.288-0.214,0.474c0.289,2.405,1.129,5.245,1.176,5.349   c0.049,0.107,0.131,0.191,0.231,0.242c0.1,0.051,0.215,0.069,0.331,0.047c0.113-0.022,3.039-0.926,5.163-2.092   c0.164-0.09,0.264-0.263,0.261-0.45s-0.11-0.358-0.276-0.443l-1.581-0.812c0,0,1.925-4.98,5.582-3.862   c-5.863-3.012-8.575,2.324-8.575,2.324l-1.577-0.81C15.571,14.407,15.37,14.42,15.217,14.526z"></path></g></svg>