<?xml version="1.0" encoding="UTF-8" standalone="no"?>
<svg
   xmlns:ns="http://ns.adobe.com/SaveForWeb/1.0/"
   xmlns:dc="http://purl.org/dc/elements/1.1/"
   xmlns:cc="http://creativecommons.org/ns#"
   xmlns:rdf="http://www.w3.org/1999/02/22-rdf-syntax-ns#"
   xmlns:svg="http://www.w3.org/2000/svg"
   xmlns="http://www.w3.org/2000/svg"
   xmlns:sodipodi="http://sodipodi.sourceforge.net/DTD/sodipodi-0.dtd"
   xmlns:inkscape="http://www.inkscape.org/namespaces/inkscape"
   version="1.1"
   x="0px"
   y="0px"
   viewBox="0 0 88.168968 96.383385"
   enable-background="new 0 0 100 100"
   xml:space="preserve"
   id="svg2"
   inkscape:version="0.91 r13725"
   sodipodi:docname="logo-signature.svg"
   width="88.168968"
   height="96.383385"><defs
     id="defs14" /><sodipodi:namedview
     pagecolor="#ffffff"
     bordercolor="#666666"
     borderopacity="1"
     objecttolerance="10"
     gridtolerance="10"
     guidetolerance="10"
     inkscape:pageopacity="0"
     inkscape:pageshadow="2"
     inkscape:window-width="656"
     inkscape:window-height="480"
     id="namedview12"
     showgrid="false"
     fit-margin-top="0"
     fit-margin-left="0"
     fit-margin-right="0"
     fit-margin-bottom="0"
     inkscape:zoom="1.888"
     inkscape:cx="60.029103"
     inkscape:cy="35.7"
     inkscape:window-x="0"
     inkscape:window-y="27"
     inkscape:window-maximized="0"
     inkscape:current-layer="svg2" /><metadata
     id="metadata4"><ns:sfw><ns:slices /><ns:sliceSourceBounds
         width="1449"
         height="1448"
         y="-1448.9"
         x="0.5"
         bottomLeftOrigin="true" /></ns:sfw><rdf:RDF><cc:Work
         rdf:about=""><dc:format>image/svg+xml</dc:format><dc:type
           rdf:resource="http://purl.org/dc/dcmitype/StillImage" /><dc:title></dc:title></cc:Work></rdf:RDF></metadata><path
     d="m 19.968971,24.983384 c -0.3,-0.8 -0.5,-1.7 -0.7,-2.5 l 0,0 c -0.5,-2.8 -0.7,-5.4 0,-7.9 0.8,-3.4 2.6,-5.9999997 4.6,-8.0999997 1.3,-1.4 2.7,-2.6 4.3,-3.5 1.3,-0.9 2.6,-1.6 4.2,-2.1 l 0,0 c 1.1,-0.5 2.4,-0.7 3.7,-0.8 4.1,-0.4 7.3,0.7 9.5,2 3.4,1.9 4.6,4.3 4.6,4.3 0,0 7.7,0.5 5.1,16.0999997 -0.1,0.8 -0.4,1.6 -0.7,2.5 1.5,-0.1 3.3,0.7 1.6,6.8 -1.2,4.4 -2.4,5.6 -3.3,5.7 -0.8,5.2 -5,11.9 -11.5,14.2 -2.7,1 -5.7,1 -8.4,0 -6.6,-2.3 -10.7,-9 -11.5,-14.2 -0.9,-0.1 -2,-1.3 -3.3,-5.7 -1.6,-6 0.2,-6.9 1.8,-6.8 z m -19.89999953,46.8 c 0,0 0.4,5.4 0.8,7.8 0,0 13.59999953,8.8 36.39999953,8.9 6.1,0 11.5,-0.6 16.2,-1.6 -0.5,-1.7 -0.7,-3.6 -0.7,-5.5 0,-10 7.2,-18.3 16.6,-20 1.2,-0.2 1.5,-1.8 0.5,-2.4 -0.7,-0.4 -1.5,-0.7 -2.3,-1 -9.4,-2.4 -17,-7.7 -17,-7.7 l -5.9,18.8 -1.1,3.5 0,0 -1,3 -3.1,-8.9 c 7.7,-10.7 -1.6,-10.6 -2.1,-10.6 -0.5,0 -9.8,-0.1 -2.1,10.6 l -3.2,8.8 -1,-3 0,0 -1.1,-3.5 -5.9,-18.7 c 0,0 -7.6,5.4 -16.9999995,7.7 -6.90000003,1.8 -7.30000003,9.8 -7.00000003,13.8 z m 73.09999953,-5.4 c 8.3,0 15,6.7 15,15 0,8.3 -6.7,15 -15,15 -8.3,0 -15,-6.7 -15,-15 0,-8.3 6.7,-15 15,-15 z m -6.1,16.9 2.8,2.8 c 0.4,0.4 0.9,0.6 1.4,0.6 l 0,0 c 0.5,0 1,-0.2 1.4,-0.6 l 6.6,-6.6 c 0.8,-0.8 0.8,-2.1 0,-2.9 -0.8,-0.8 -2.1,-0.8 -2.9,0 l -5.2,5.1 -1.3,-1.3 c -0.8,-0.8 -2.1,-0.8 -2.9,0 -0.7,0.9 -0.7,2.1 0.1,2.9 z"
     id="path6"
     inkscape:connector-curvature="0" /><text
     x="-5.9310284"
     y="113.18339"
     font-size="5px"
     font-weight="bold"
     id="text8"
     style="font-weight:bold;font-size:5px;font-family:'Helvetica Neue', Helvetica, Arial-Unicode, Arial, Sans-serif;fill:#000000">Created by Gregor Črešnar</text>
<text
     x="-5.9310284"
     y="118.18339"
     font-size="5px"
     font-weight="bold"
     id="text10"
     style="font-weight:bold;font-size:5px;font-family:'Helvetica Neue', Helvetica, Arial-Unicode, Arial, Sans-serif;fill:#000000">from the Noun Project</text>
</svg>