<?xml version="1.0" encoding="UTF-8" standalone="no"?>
<svg
   xmlns:dc="http://purl.org/dc/elements/1.1/"
   xmlns:cc="http://creativecommons.org/ns#"
   xmlns:rdf="http://www.w3.org/1999/02/22-rdf-syntax-ns#"
   xmlns:svg="http://www.w3.org/2000/svg"
   xmlns="http://www.w3.org/2000/svg"
   xmlns:sodipodi="http://sodipodi.sourceforge.net/DTD/sodipodi-0.dtd"
   xmlns:inkscape="http://www.inkscape.org/namespaces/inkscape"
   version="1.1"
   x="0px"
   y="0px"
   viewBox="0 0 95.401001 95"
   enable-background="new 0 0 100 100"
   xml:space="preserve"
   id="svg2"
   inkscape:version="0.91 r13725"
   sodipodi:docname="logo-demos.svg"
   width="95.401001"
   height="95"><metadata
     id="metadata24"><rdf:RDF><cc:Work
         rdf:about=""><dc:format>image/svg+xml</dc:format><dc:type
           rdf:resource="http://purl.org/dc/dcmitype/StillImage" /><dc:title></dc:title></cc:Work></rdf:RDF></metadata><defs
     id="defs22" /><sodipodi:namedview
     pagecolor="#ffffff"
     bordercolor="#666666"
     borderopacity="1"
     objecttolerance="10"
     gridtolerance="10"
     guidetolerance="10"
     inkscape:pageopacity="0"
     inkscape:pageshadow="2"
     inkscape:window-width="2560"
     inkscape:window-height="1376"
     id="namedview20"
     showgrid="false"
     fit-margin-top="0"
     fit-margin-left="0"
     fit-margin-right="0"
     fit-margin-bottom="0"
     inkscape:zoom="1.888"
     inkscape:cx="304.6349"
     inkscape:cy="34.5"
     inkscape:window-x="0"
     inkscape:window-y="27"
     inkscape:window-maximized="1"
     inkscape:current-layer="svg2" /><g
     id="g4"
     transform="translate(-1.085,-6)"><g
       id="g6"><path
         d="m 58.879,49.042 c 7.508,0 13.586,-6.081 13.586,-13.584 0,-7.5 -6.078,-13.578 -13.586,-13.578 -7.496,0 -13.571,6.078 -13.571,13.578 0,7.504 6.075,13.584 13.571,13.584 z M 52.736,27.268 c 0,-0.872 0.578,-1.238 1.363,-0.784 l 14.16,8.178 c 0.781,0.448 0.781,1.153 0,1.607 L 54.1,44.435 c -0.785,0.419 -1.363,0.092 -1.363,-0.819 l 0,-16.348 z"
         id="path8"
         inkscape:connector-curvature="0"
         style="fill:#000000" /><path
         d="m 20,9 0,50 76.486,0 0,-50 L 20,9 Z m 73.24,47.258 -69.993,0 0,-44.515 69.993,0 0,44.515 0,0 z"
         id="path10"
         inkscape:connector-curvature="0"
         style="fill:#000000" /></g><path
       d="M 16.781,43.11 C 16.781,45.816 14.589,48 11.89,48 9.185,48 7,45.815 7,43.11 c 0,-2.698 2.185,-4.891 4.89,-4.891 2.699,0 4.891,2.193 4.891,4.891 z"
       id="path12"
       inkscape:connector-curvature="0"
       style="fill:#000000" /><path
       d="m 28.126,39.611 c 1.459,0 2.625,1.73 1.283,3.351 l -5.074,9.796 c -1.356,1.65 -3.16,2.588 -4.972,2.588 -0.571,0 -1.136,-0.088 -1.693,-0.285 l -0.015,39.16 c 0,1.51 -1.225,2.779 -2.741,2.779 -1.512,0 -2.742,-1.145 -2.742,-2.654 l 0.006,-22.84 -1.217,0 -0.008,22.854 c 0,1.512 -1.225,2.59 -2.742,2.59 -1.51,0 -2.734,-1.195 -2.734,-2.715 l 0,-39.592 -0.726,0 0,14.664 c 0,1.1 -0.917,1.65 -1.833,1.65 -0.916,0 -1.833,-0.551 -1.833,-1.65 l 0,-15.186 c 0,-3.52 1.826,-6.342 5.287,-6.342 l 10.616,0 c 1.746,0 2.712,0.308 3.659,1.349 l 1.084,0.008 4.708,-8.638 c 0.521,-0.63 1.123,-0.887 1.687,-0.887 z"
       id="path14"
       inkscape:connector-curvature="0"
       style="fill:#000000" /></g><text
     x="-1.085"
     y="113"
     font-size="5px"
     font-weight="bold"
     id="text16"
     style="font-weight:bold;font-size:5px;font-family:'Helvetica Neue', Helvetica, Arial-Unicode, Arial, Sans-serif;fill:#000000">Created by João Proença</text>
<text
     x="-1.085"
     y="118"
     font-size="5px"
     font-weight="bold"
     id="text18"
     style="font-weight:bold;font-size:5px;font-family:'Helvetica Neue', Helvetica, Arial-Unicode, Arial, Sans-serif;fill:#000000">from the Noun Project</text>
</svg>