<?xml version="1.0" encoding="UTF-8" standalone="no"?>
<svg
   xmlns:dc="http://purl.org/dc/elements/1.1/"
   xmlns:cc="http://creativecommons.org/ns#"
   xmlns:rdf="http://www.w3.org/1999/02/22-rdf-syntax-ns#"
   xmlns:svg="http://www.w3.org/2000/svg"
   xmlns="http://www.w3.org/2000/svg"
   xmlns:sodipodi="http://sodipodi.sourceforge.net/DTD/sodipodi-0.dtd"
   xmlns:inkscape="http://www.inkscape.org/namespaces/inkscape"
   version="1.1"
   x="0px"
   y="0px"
   viewBox="0 0 90 77.639"
   enable-background="new 0 0 100 100"
   xml:space="preserve"
   id="svg2"
   inkscape:version="0.91 r13725"
   sodipodi:docname="logo-history.svg"
   width="90"
   height="77.639"><metadata
     id="metadata14"><rdf:RDF><cc:Work
         rdf:about=""><dc:format>image/svg+xml</dc:format><dc:type
           rdf:resource="http://purl.org/dc/dcmitype/StillImage" /><dc:title></dc:title></cc:Work></rdf:RDF></metadata><defs
     id="defs12" /><sodipodi:namedview
     pagecolor="#ffffff"
     bordercolor="#666666"
     borderopacity="1"
     objecttolerance="10"
     gridtolerance="10"
     guidetolerance="10"
     inkscape:pageopacity="0"
     inkscape:pageshadow="2"
     inkscape:window-width="656"
     inkscape:window-height="480"
     id="namedview10"
     showgrid="false"
     fit-margin-top="0"
     fit-margin-left="0"
     fit-margin-right="0"
     fit-margin-bottom="0"
     inkscape:zoom="1.888"
     inkscape:cx="20.105932"
     inkscape:cy="26.32"
     inkscape:window-x="387"
     inkscape:window-y="220"
     inkscape:window-maximized="0"
     inkscape:current-layer="svg2" /><path
     d="m 0,61.729 32.188,0 0,7.468 -32.188,0 0,-7.468 z M 51.181,0 C 29.776,0 12.362,17.414 12.362,38.82 L 0,38.82 16.094,57.996 32.187,38.82 l -12.36,0 c 0,-17.289 14.065,-31.354 31.353,-31.354 17.287,0 31.353,14.065 31.353,31.354 0,17.286 -14.065,31.353 -31.353,31.353 l 0,7.466 C 72.586,77.638 90,60.224 90,38.82 90,17.414 72.586,0 51.181,0 Z m -21.095,20.366 4.878,4.878 c 0.8,-0.956 1.684,-1.84 2.639,-2.64 l -4.877,-4.878 c -0.936,0.821 -1.819,1.702 -2.64,2.64 z m 33.523,-6.674 c -1.11,-0.55 -2.262,-1.025 -3.45,-1.428 l -2.639,6.372 c 1.198,0.377 2.351,0.86 3.447,1.435 l 2.642,-6.379 z m 6.024,4.034 -4.877,4.878 c 0.955,0.801 1.84,1.685 2.641,2.64 l 4.877,-4.877 c -0.821,-0.938 -1.703,-1.819 -2.641,-2.641 z m -10e-4,42.186 c 0.938,-0.821 1.82,-1.702 2.642,-2.641 l -4.878,-4.877 c -0.801,0.956 -1.685,1.839 -2.641,2.641 l 4.877,4.877 z M 79.213,38.82 c 0,-0.629 -0.028,-1.25 -0.068,-1.868 l -6.901,0 c 0.055,0.616 0.088,1.238 0.088,1.868 0,0.629 -0.033,1.25 -0.088,1.865 l 6.901,0 c 0.04,-0.616 0.068,-1.238 0.068,-1.865 z M 69.93,29.032 c 0.573,1.098 1.058,2.248 1.434,3.447 l 6.372,-2.638 C 77.335,28.653 76.859,27.5 76.308,26.39 l -6.378,2.642 z m -16.882,30.85 c -0.616,0.054 -1.238,0.088 -1.868,0.088 -0.629,0 -1.251,-0.034 -1.866,-0.087 l 0,6.899 c 0.617,0.04 1.238,0.068 1.866,0.068 0.628,0 1.251,-0.028 1.868,-0.068 l 0,-6.9 z m 7.111,5.493 c 1.188,-0.402 2.341,-0.878 3.45,-1.43 l -2.642,-6.377 c -1.097,0.572 -2.248,1.058 -3.447,1.433 l 2.639,6.374 z m 9.771,-16.768 6.378,2.64 c 0.55,-1.108 1.026,-2.261 1.428,-3.449 l -6.372,-2.641 c -0.377,1.201 -0.861,2.351 -1.434,3.45 z M 38.75,13.692 41.393,20.07 c 1.097,-0.573 2.248,-1.058 3.447,-1.434 l -2.639,-6.372 c -1.187,0.402 -2.34,0.877 -3.451,1.428 z m -14.125,16.148 6.372,2.639 c 0.376,-1.199 0.86,-2.35 1.434,-3.447 L 26.053,26.39 c -0.551,1.111 -1.027,2.263 -1.428,3.45 z m 28.422,-12.085 0,-6.899 c -0.617,-0.04 -1.239,-0.068 -1.867,-0.068 -0.628,0 -1.249,0.028 -1.866,0.068 l 0,6.899 c 0.615,-0.054 1.237,-0.086 1.866,-0.086 0.63,0 1.251,0.032 1.867,0.086 z"
     id="path4"
     inkscape:connector-curvature="0" /><text
     x="-5"
     y="103.819"
     font-size="5px"
     font-weight="bold"
     id="text6"
     style="font-weight:bold;font-size:5px;font-family:'Helvetica Neue', Helvetica, Arial-Unicode, Arial, Sans-serif;fill:#000000">Created by Francesco Terzini</text>
<text
     x="-5"
     y="108.819"
     font-size="5px"
     font-weight="bold"
     id="text8"
     style="font-weight:bold;font-size:5px;font-family:'Helvetica Neue', Helvetica, Arial-Unicode, Arial, Sans-serif;fill:#000000">from the Noun Project</text>
</svg>