<?xml version="1.0" encoding="UTF-8" standalone="no"?>
<svg
   xmlns:dc="http://purl.org/dc/elements/1.1/"
   xmlns:cc="http://creativecommons.org/ns#"
   xmlns:rdf="http://www.w3.org/1999/02/22-rdf-syntax-ns#"
   xmlns:svg="http://www.w3.org/2000/svg"
   xmlns="http://www.w3.org/2000/svg"
   xmlns:sodipodi="http://sodipodi.sourceforge.net/DTD/sodipodi-0.dtd"
   xmlns:inkscape="http://www.inkscape.org/namespaces/inkscape"
   version="1.1"
   x="0px"
   y="0px"
   viewBox="0 0 98 79.099998"
   enable-background="new 0 0 100 100"
   xml:space="preserve"
   id="svg2"
   inkscape:version="0.91 r13725"
   sodipodi:docname="logo-admin.svg"
   width="98"
   height="79.099998"><metadata
     id="metadata14"><rdf:RDF><cc:Work
         rdf:about=""><dc:format>image/svg+xml</dc:format><dc:type
           rdf:resource="http://purl.org/dc/dcmitype/StillImage" /><dc:title></dc:title></cc:Work></rdf:RDF></metadata><defs
     id="defs12" /><sodipodi:namedview
     pagecolor="#ffffff"
     bordercolor="#666666"
     borderopacity="1"
     objecttolerance="10"
     gridtolerance="10"
     guidetolerance="10"
     inkscape:pageopacity="0"
     inkscape:pageshadow="2"
     inkscape:window-width="656"
     inkscape:window-height="480"
     id="namedview10"
     showgrid="false"
     fit-margin-top="0"
     fit-margin-left="0"
     fit-margin-right="0"
     fit-margin-bottom="0"
     inkscape:zoom="1.888"
     inkscape:cx="24.105932"
     inkscape:cy="25.940678"
     inkscape:window-x="0"
     inkscape:window-y="27"
     inkscape:window-maximized="0"
     inkscape:current-layer="svg2" /><path
     d="m 6.8,79.1 84.4,0 c 3.7,0 6.8,-3 6.8,-6.8 L 98,6.8 C 98,3.1 95,0 91.2,0 L 6.8,0 C 3.1,0 0,3 0,6.8 l 0,65.5 c 0,3.8 3.1,6.8 6.8,6.8 z m 84.4,-3.5 -84.4,0 C 5,75.6 3.5,74.1 3.5,72.3 l 0,-49.8 91,0 0,49.9 c 0,1.8 -1.5,3.2 -3.3,3.2 z m -84.4,-72 84.4,0 c 1.8,0 3.3,1.5 3.3,3.3 l 0,12.1 -91,0 0,-12.2 C 3.5,5 5,3.6 6.8,3.6 Z M 10,12.5 C 9.7,12.2 9.5,11.7 9.5,11.3 c 0,-0.4 0.2,-0.9 0.5,-1.2 0.6,-0.7 1.8,-0.7 2.5,0 0.3,0.3 0.5,0.8 0.5,1.2 0,0.4 -0.2,0.9 -0.5,1.2 -0.3,0.3 -0.8,0.5 -1.2,0.5 -0.4,0 -1,-0.2 -1.3,-0.5 z m 9.4,0 c -0.3,-0.3 -0.5,-0.8 -0.5,-1.2 0,-0.4 0.2,-0.9 0.5,-1.2 0.6,-0.7 1.8,-0.6 2.5,0 0.3,0.3 0.5,0.8 0.5,1.2 0,0.5 -0.2,0.9 -0.5,1.2 -0.3,0.3 -0.8,0.5 -1.2,0.5 -0.5,0 -1,-0.2 -1.3,-0.5 z m 9.5,0 c -0.3,-0.3 -0.5,-0.8 -0.5,-1.2 0,-0.4 0.2,-0.9 0.5,-1.2 0.7,-0.7 1.8,-0.7 2.5,0 0.3,0.3 0.5,0.8 0.5,1.2 0,0.4 -0.2,0.9 -0.5,1.2 -0.3,0.3 -0.8,0.5 -1.2,0.5 -0.4,0 -1,-0.2 -1.3,-0.5 z m 44.4,50.6 c 0,1 -0.8,1.8 -1.8,1.8 l -26.1,0 c -1,0 -1.8,-0.8 -1.8,-1.8 0,-1 0.8,-1.8 1.8,-1.8 l 26.1,0 c 1,0.1 1.8,0.9 1.8,1.8 z m -42,-6.6 c -3.6,0 -6.6,3 -6.6,6.6 0,3.6 3,6.6 6.6,6.6 3.6,0 6.6,-3 6.6,-6.6 0,-3.6 -3,-6.6 -6.6,-6.6 z m 0,9.7 c -1.7,0 -3.1,-1.4 -3.1,-3.1 0,-1.7 1.4,-3.1 3.1,-3.1 1.7,0 3.1,1.4 3.1,3.1 0,1.7 -1.4,3.1 -3.1,3.1 z M 24.7,49.5 c 0,-1 0.8,-1.8 1.8,-1.8 l 25.8,0 c 1,0 1.8,0.8 1.8,1.8 0,1 -0.8,1.8 -1.8,1.8 l -25.9,0 c -0.9,-0.1 -1.7,-0.9 -1.7,-1.8 z m 42,-6.6 c -3.6,0 -6.6,3 -6.6,6.6 0,3.6 3,6.6 6.6,6.6 3.6,0 6.6,-3 6.6,-6.6 0,-3.6 -3,-6.6 -6.6,-6.6 z m 0,9.7 c -1.7,0 -3.1,-1.4 -3.1,-3.1 0,-1.7 1.4,-3.1 3.1,-3.1 1.7,0 3.1,1.4 3.1,3.1 0,1.7 -1.4,3.1 -3.1,3.1 z m 6.6,-16.9 c 0,1 -0.8,1.8 -1.8,1.8 l -26.1,0 c -1,0 -1.8,-0.8 -1.8,-1.8 0,-1 0.8,-1.8 1.8,-1.8 l 26.1,0 c 1,0 1.8,0.8 1.8,1.8 z m -42,6.6 c 3.6,0 6.6,-3 6.6,-6.6 0,-3.6 -3,-6.6 -6.6,-6.6 -3.6,0 -6.6,3 -6.6,6.6 0,3.6 3,6.6 6.6,6.6 z m 0,-9.7 c 1.7,0 3.1,1.4 3.1,3.1 0,1.7 -1.4,3.1 -3.1,3.1 -1.7,0 -3.1,-1.4 -3.1,-3.1 0,-1.7 1.4,-3.1 3.1,-3.1 z"
     id="path4"
     inkscape:connector-curvature="0" /><text
     x="-1"
     y="104.6"
     font-size="5px"
     font-weight="bold"
     id="text6"
     style="font-weight:bold;font-size:5px;font-family:'Helvetica Neue', Helvetica, Arial-Unicode, Arial, Sans-serif;fill:#000000">Created by Gregor Črešnar</text>
<text
     x="-1"
     y="109.6"
     font-size="5px"
     font-weight="bold"
     id="text8"
     style="font-weight:bold;font-size:5px;font-family:'Helvetica Neue', Helvetica, Arial-Unicode, Arial, Sans-serif;fill:#000000">from the Noun Project</text>
</svg>