<?xml version="1.0" encoding="UTF-8" standalone="no"?>
<svg
   xmlns:dc="http://purl.org/dc/elements/1.1/"
   xmlns:cc="http://creativecommons.org/ns#"
   xmlns:rdf="http://www.w3.org/1999/02/22-rdf-syntax-ns#"
   xmlns:svg="http://www.w3.org/2000/svg"
   xmlns="http://www.w3.org/2000/svg"
   xmlns:sodipodi="http://sodipodi.sourceforge.net/DTD/sodipodi-0.dtd"
   xmlns:inkscape="http://www.inkscape.org/namespaces/inkscape"
   version="1.1"
   x="0px"
   y="0px"
   viewBox="0 0 83.202805 100"
   enable-background="new 0 0 100 100"
   xml:space="preserve"
   id="svg2"
   inkscape:version="0.91 r13725"
   sodipodi:docname="logo-permissions.svg"
   width="83.202805"
   height="100"><metadata
     id="metadata14"><rdf:RDF><cc:Work
         rdf:about=""><dc:format>image/svg+xml</dc:format><dc:type
           rdf:resource="http://purl.org/dc/dcmitype/StillImage" /><dc:title></dc:title></cc:Work></rdf:RDF></metadata><defs
     id="defs12" /><sodipodi:namedview
     pagecolor="#ffffff"
     bordercolor="#666666"
     borderopacity="1"
     objecttolerance="10"
     gridtolerance="10"
     guidetolerance="10"
     inkscape:pageopacity="0"
     inkscape:pageshadow="2"
     inkscape:window-width="1920"
     inkscape:window-height="1025"
     id="namedview10"
     showgrid="false"
     fit-margin-top="0"
     fit-margin-left="0"
     fit-margin-right="0"
     fit-margin-bottom="0"
     inkscape:zoom="1.888"
     inkscape:cx="40.064199"
     inkscape:cy="126.60803"
     inkscape:window-x="0"
     inkscape:window-y="27"
     inkscape:window-maximized="1"
     inkscape:current-layer="svg2" /><path
     d="m 83.074401,12.606 c 0,0 -15.576,-12.606 -41.473,-12.606 -25.897,0 -41.47300033,12.606 -41.47300033,12.606 0,0 -0.522,27.859 0.539,46.917 C 1.8444007,80.669 41.601401,100 41.601401,100 c 0,0 39.757,-19.331 40.934,-40.477 1.061,-19.058 0.539,-46.917 0.539,-46.917 z m -8.287,46.485 c -0.633,11.375 -20.799,25.463 -33.186,32.177 -12.387,-6.714 -32.5530003,-20.802 -33.1860003,-32.177 -0.797,-14.314 -0.681,-33.977 -0.585,-42.329 C 12.979401,13.65 24.928401,7.76 41.601401,7.76 c 16.865,0 28.672,5.848 33.77,8.969 0.097,8.333 0.214,28.029 -0.584,42.362 z m -34.103,-6.471 c 0.313,-0.81 -0.089,-1.72 -0.9,-2.034 -0.806,-0.312 -1.72,0.089 -2.033,0.899 -1.906,4.927 -8.668,14.288 -14.928,17.741 -0.76,0.421 -1.036,1.377 -0.617,2.137 0.287,0.519 0.825,0.812 1.379,0.812 0.256,0 0.517,-0.063 0.759,-0.195 7.247,-3.998 14.263,-13.986 16.34,-19.36 z m 5.654,3.038 c 2.071,-5.959 -0.501,-9.988 -3.966,-11.337 -3.505,-1.367 -8.359,-0.18 -10.464,4.693 -1.79,4.142 -6.412,11.373 -11.811,14.318 -0.762,0.416 -1.043,1.371 -0.626,2.134 0.416,0.76 1.371,1.043 2.134,0.626 6.57,-3.587 11.501,-11.924 13.19,-15.831 1.325,-3.066 4.301,-3.842 6.437,-3.01 2.001,0.778 3.613,3.125 2.137,7.375 -2.3,6.615 -10.828,15.58 -16.356,18.593 -0.763,0.415 -1.044,1.37 -0.628,2.133 0.286,0.524 0.825,0.82 1.382,0.82 0.253,0 0.511,-0.061 0.751,-0.192 6.136,-3.344 15.257,-12.95 17.82,-20.322 z m -1.826,-16.834 c -2.392,-0.93 -4.986,-1.172 -7.49,-0.699 -4.66,0.878 -8.595,4.074 -10.53,8.549 -2.021,4.68 -5.003,8.07 -8.866,10.076 -0.771,0.401 -1.07,1.35 -0.671,2.12 0.402,0.769 1.348,1.069 2.12,0.671 4.522,-2.349 7.989,-6.26 10.303,-11.621 1.519,-3.515 4.594,-6.022 8.224,-6.705 1.936,-0.364 3.929,-0.18 5.769,0.538 4.546,1.768 8.227,7.156 5.568,14.808 -2.537,7.298 -10.057,15.571 -16.176,19.972 -0.705,0.507 -0.866,1.489 -0.358,2.194 0.307,0.427 0.788,0.654 1.278,0.654 0.318,0 0.639,-0.097 0.917,-0.296 6.52,-4.688 14.559,-13.577 17.309,-21.492 3.345,-9.618 -1.49,-16.472 -7.397,-18.769 z m 2.139,-5.497 c -3.413,-1.329 -7.12,-1.674 -10.721,-0.998 -6.575,1.238 -11.677,4.915 -14.37,10.357 l -0.075,0.151 c -0.927,1.879 -1.886,3.822 -3.485,4.311 -0.831,0.254 -1.299,1.133 -1.044,1.964 0.253,0.83 1.136,1.297 1.962,1.044 2.899,-0.887 4.279,-3.681 5.388,-5.927 l 0.074,-0.15 c 2.243,-4.534 6.552,-7.61 12.133,-8.66 3.016,-0.57 6.13,-0.279 8.999,0.838 7.324,2.849 12.767,11.404 8.999,22.241 -1.72,4.946 -5.408,10.561 -10.386,15.809 -0.597,0.631 -0.571,1.626 0.058,2.223 0.304,0.289 0.694,0.431 1.083,0.431 0.416,0 0.832,-0.164 1.141,-0.49 5.279,-5.568 9.211,-11.583 11.074,-16.942 4.422,-12.715 -2.101,-22.807 -10.83,-26.202 z m 2.142,-5.496 c -4.445,-1.733 -9.276,-2.179 -13.954,-1.299 -6.863,1.293 -12.601,5.203 -16.592,11.309 -0.476,0.727 -0.272,1.701 0.456,2.177 0.728,0.476 1.703,0.273 2.176,-0.455 3.562,-5.449 8.454,-8.793 14.541,-9.939 4.109,-0.774 8.338,-0.379 12.233,1.139 9.713,3.778 17.372,15.463 12.431,29.673 -0.717,2.059 -1.691,4.181 -2.894,6.305 -0.428,0.755 -0.163,1.715 0.593,2.144 0.246,0.138 0.511,0.204 0.774,0.204 0.548,0 1.079,-0.287 1.37,-0.797 1.297,-2.289 2.349,-4.583 3.128,-6.822 5.587,-16.073 -3.179,-29.328 -14.262,-33.639 z m 3.55,-5.088 c -9.217,-3.855 -19.803,-3.079 -28.322,2.071 -0.743,0.45 -0.981,1.416 -0.531,2.16 0.447,0.742 1.411,0.98 2.159,0.532 7.663,-4.633 17.189,-5.33 25.481,-1.861 7.917,3.312 13.415,9.896 15.48,18.539 0.172,0.722 0.817,1.207 1.528,1.207 0.121,0 0.244,-0.014 0.367,-0.043 0.845,-0.202 1.365,-1.05 1.164,-1.895 -2.305,-9.645 -8.459,-17 -17.326,-20.71 z m -19.132,-4.71 c 19.159,-3.264 28.239,6.122 31.254,10.309 0.307,0.427 0.789,0.653 1.278,0.653 0.318,0 0.639,-0.096 0.917,-0.296 0.705,-0.507 0.864,-1.49 0.358,-2.195 -3.361,-4.665 -13.441,-15.13 -34.334,-11.571 -0.857,0.146 -1.431,0.958 -1.285,1.814 0.145,0.857 0.96,1.434 1.812,1.286 z"
     id="path4"
     inkscape:connector-curvature="0"
     style="fill:#000000" /><text
     x="-8.3985996"
     y="115"
     font-size="5px"
     font-weight="bold"
     id="text6"
     style="font-weight:bold;font-size:5px;font-family:'Helvetica Neue', Helvetica, Arial-Unicode, Arial, Sans-serif;fill:#000000">Created by Jason Grube</text>
<text
     x="-8.3985996"
     y="120"
     font-size="5px"
     font-weight="bold"
     id="text8"
     style="font-weight:bold;font-size:5px;font-family:'Helvetica Neue', Helvetica, Arial-Unicode, Arial, Sans-serif;fill:#000000">from the Noun Project</text>
</svg>