<?xml version="1.0" encoding="utf-8"?>
<!DOCTYPE svg PUBLIC "-//W3C//DTD SVG 1.1//EN" "http://www.w3.org/Graphics/SVG/1.1/DTD/svg11.dtd">
<svg  xmlns="http://www.w3.org/2000/svg" version="1.1" viewBox="0 0 368.5 55.36"><defs><style>.a{fill:#e85693;}</style></defs><title>alwaysdata</title><path class="a" d="M65.94,35.43a9.48,9.48,0,0,0-7.5-2.67l-14.89-20A8.23,8.23,0,0,0,30.3,3.39a8.11,8.11,0,0,0-1.13,10.17L18.08,31.32a6.52,6.52,0,0,0-4.42,0L7.7,24a4.25,4.25,0,0,0,.51-2,4.11,4.11,0,1,0-4.11,4.11H4.62l5.75,8.42a6.15,6.15,0,0,0,1.23,6.88,6.26,6.26,0,0,0,8.73,0,6.16,6.16,0,0,0,1.44-6.37L34.92,17.46a7.59,7.59,0,0,0,2.16,0l13.76,21a9.22,9.22,0,0,0,15,10.17,9.09,9.09,0,0,0,.1-13.15"/><path class="a" d="M92.64,36V33a7.22,7.22,0,0,1,2.05-5.14,8,8,0,0,1,5.85-2.05H111V20.23a4.17,4.17,0,0,0-1.54-3.49c-1-.82-2.77-1.23-5.34-1.23s-4.31.41-5.34,1.13A3.85,3.85,0,0,0,97.26,20v0.72a0.89,0.89,0,0,1-.92,1H94.18c-0.62,0-.82-0.31-0.82-1v-1c0-5.14,3.7-7.7,11-7.7s11,2.57,11,7.7V41.59a0.79,0.79,0,0,1-.82.92h-2.26a0.82,0.82,0,0,1-.92-0.92l-0.1-2.16a15.23,15.23,0,0,1-10.06,3.49,9,9,0,0,1-6.26-2.05A5.63,5.63,0,0,1,92.64,36m4.11-.62c0,2.77,1.75,4.21,5.24,4.21a14.8,14.8,0,0,0,9-3.39V29.07h-9.65c-3.08,0-4.62,1.44-4.62,4.42v2Z"/><path class="a" d="M124.37,41.7V1A0.82,0.82,0,0,1,125.3.1h2.36a0.75,0.75,0,0,1,.82.92V41.7a0.79,0.79,0,0,1-.82.92H125.3a0.82,0.82,0,0,1-.92-0.92"/><path class="a" d="M134.54,13.56c0-.1-0.1-0.21-0.1-0.31q0-.62.92-0.62h2.36a0.92,0.92,0,0,1,.92.92l5.75,21.16a3,3,0,0,1,.21,1,6.55,6.55,0,0,0,.21.92,1.62,1.62,0,0,1,.1.41,23.93,23.93,0,0,1,.62-2.46l5.85-21.16a1.08,1.08,0,0,1,1-.92H155a0.92,0.92,0,0,1,.92.92l5.44,21.26L162,37.08a10.81,10.81,0,0,1,.72-2.36l5.65-21.16a1.08,1.08,0,0,1,1-.92h2.05c0.51,0,.82.21,0.82,0.51a0.38,0.38,0,0,1-.1.31L164.22,41.7a0.88,0.88,0,0,1-.92.82h-3a0.9,0.9,0,0,1-.92-0.82l-5.34-20.54c-0.1-.31-0.31-1.23-0.62-2.88l-0.82,2.88L146.87,41.8a1,1,0,0,1-.92.82h-2.77a1.08,1.08,0,0,1-1-.82Z"/><path class="a" d="M177.06,36V33a7.22,7.22,0,0,1,2.05-5.14A8,8,0,0,1,185,25.78h10.48V20.23a4.17,4.17,0,0,0-1.54-3.49c-1-.82-2.77-1.23-5.34-1.23s-4.31.41-5.34,1.13A3.85,3.85,0,0,0,181.68,20v0.72a0.89,0.89,0,0,1-.92,1H178.6c-0.62,0-.82-0.31-0.82-1v-1c0-5.14,3.7-7.7,11-7.7s11,2.57,11,7.7V41.59a0.79,0.79,0,0,1-.82.92h-2.26a0.82,0.82,0,0,1-.92-0.92l-0.1-2.16a15.23,15.23,0,0,1-10.06,3.49,9,9,0,0,1-6.26-2.05A5.63,5.63,0,0,1,177.06,36m4.11-.62c0,2.77,1.75,4.21,5.24,4.21a14.8,14.8,0,0,0,9-3.39V29.07h-9.65c-3.08,0-4.62,1.44-4.62,4.42v2h0Z"/><path class="a" d="M205.1,13.56a1,1,0,0,0-.1-0.31c0-.41.31-0.51,0.82-0.51h2.46a1.08,1.08,0,0,1,1,.92l6.88,20.23a7.69,7.69,0,0,1,.41,1.64c0.1,0.62.21,1,.31,1.44a2.87,2.87,0,0,1,.1.62,26.27,26.27,0,0,1,1-3.49l7-20.34a1.08,1.08,0,0,1,1-.92h2.36c0.62,0,.82.21,0.82,0.51a0.38,0.38,0,0,1-.1.31l-14,40.77a1.16,1.16,0,0,1-1,.92h-1.85c-0.72,0-.92-0.31-0.72-0.92l3.7-11.4Z"/><path class="a" d="M233.44,36.25V34.61a0.71,0.71,0,0,1,.82-0.82h2.26a0.76,0.76,0,0,1,.82.82V36c0,2.57,2.36,3.8,7.09,3.8a10.71,10.71,0,0,0,5.34-1A3.17,3.17,0,0,0,251.62,36V33.79c0-1.54-1.23-2.67-3.59-3.39l-9.35-3.08a8.31,8.31,0,0,1-3.29-2.16,5.38,5.38,0,0,1-1.44-3.7V19.1a5.7,5.7,0,0,1,2.57-4.93c1.64-1.34,4.31-2,8-2s6.26,0.62,8,2a6,6,0,0,1,2.57,4.93v1.75a0.76,0.76,0,0,1-.82.82H252a0.68,0.68,0,0,1-.82-0.72V19.21q0-3.7-6.78-3.7c-4.42,0-6.57,1.23-6.57,3.7v1.44c0,1.54,1,2.67,3.08,3.29L250.29,27c3.49,1.13,5.24,3.08,5.24,5.75v3.49a5.92,5.92,0,0,1-2.77,4.93c-1.85,1.34-4.62,2-8.32,2s-6.47-.62-8.32-2a6.06,6.06,0,0,1-2.67-4.93"/><path class="a" d="M262.51,35.33V19.92a7.77,7.77,0,0,1,2.05-5.65c1.44-1.44,3.49-2.05,6.37-2.05a17,17,0,0,1,10.27,3.49V0.92A0.79,0.79,0,0,1,282,0h2.46a0.82,0.82,0,0,1,.92.92V41.7a0.82,0.82,0,0,1-.92.92h-2.16a0.82,0.82,0,0,1-.92-0.92l-0.1-2.16A16.64,16.64,0,0,1,270.93,43c-2.88,0-4.93-.72-6.37-2.05a7.61,7.61,0,0,1-2.05-5.65m4.21-.51a4.19,4.19,0,0,0,1.34,3.29,5.84,5.84,0,0,0,4,1.23,15.58,15.58,0,0,0,9.24-3.39V19.31a14.66,14.66,0,0,0-9.24-3.49c-1.85,0-3.18.41-4,1.34a4.19,4.19,0,0,0-1.34,3.29V34.82Z"/><path class="a" d="M294,36V33a7.22,7.22,0,0,1,2.05-5.14,8,8,0,0,1,5.85-2.05h10.48V20.23a4.17,4.17,0,0,0-1.54-3.49c-1-.82-2.77-1.23-5.34-1.23s-4.31.41-5.34,1.13A3.85,3.85,0,0,0,298.66,20v0.72a0.89,0.89,0,0,1-.92,1h-2.16c-0.62,0-.82-0.31-0.82-1v-1c0-5.14,3.7-7.7,11-7.7s11,2.57,11,7.7V41.59a0.79,0.79,0,0,1-.82.92h-2.26a0.82,0.82,0,0,1-.92-0.92l-0.1-2.16a15.23,15.23,0,0,1-10.06,3.49,9,9,0,0,1-6.26-2.05A5.63,5.63,0,0,1,294,36m4.11-.62c0,2.77,1.75,4.21,5.24,4.21a14.8,14.8,0,0,0,9-3.39V29.07h-9.65c-3.08,0-4.62,1.44-4.62,4.42v2Z"/><path class="a" d="M322.59,15.3V13.86a0.84,0.84,0,0,1,.82-0.92l3.18-.21h0.51V6.26A0.82,0.82,0,0,1,328,5.34h2.46a0.75,0.75,0,0,1,.82.92v6.47h6.88a0.79,0.79,0,0,1,.92.82V15.2a0.82,0.82,0,0,1-.92.92h-6.88V34.2A4,4,0,0,0,333,37.69c1.13,0.82,2.88,1.13,5.44,1.13h1a0.82,0.82,0,0,1,.92.92v1.85a0.82,0.82,0,0,1-.92.92h-1.64c-4,0-6.78-.62-8.32-2s-2.36-3.29-2.36-5.85V16.23h-3.7a0.75,0.75,0,0,1-.82-0.92"/><path class="a" d="M345.8,36V33a7.22,7.22,0,0,1,2.05-5.14,8,8,0,0,1,5.85-2.05h10.48V20.23a4.17,4.17,0,0,0-1.54-3.49c-1-.82-2.77-1.23-5.34-1.23s-4.31.41-5.34,1.13A3.85,3.85,0,0,0,350.42,20v0.72a0.89,0.89,0,0,1-.92,1h-2.16c-0.62,0-.82-0.31-0.82-1v-1c0-5.14,3.7-7.7,11-7.7s11,2.57,11,7.7V41.59a0.79,0.79,0,0,1-.82.92h-2.26a0.82,0.82,0,0,1-.92-0.92l-0.1-2.16a15.23,15.23,0,0,1-10.06,3.49,9,9,0,0,1-6.26-2.05A5.63,5.63,0,0,1,345.8,36m4.11-.62c0,2.77,1.75,4.21,5.24,4.21a14.8,14.8,0,0,0,9-3.39V29.07h-9.65c-3.08,0-4.62,1.44-4.62,4.42v2Z"/></svg>
