<?xml version="1.0" encoding="utf-8"?>
<!-- Generator: Adobe Illustrator 20.0.0, SVG Export Plug-In . SVG Version: 6.00 Build 0)  -->
<svg version="1.1" id="Kinto" xmlns="http://www.w3.org/2000/svg" xmlns:xlink="http://www.w3.org/1999/xlink" x="0px" y="0px"
	 viewBox="0 0 550 140" style="enable-background:new 0 0 550 140;" xml:space="preserve">
<style type="text/css">
	.st0{fill:#999999;}
	.st1{fill:#333333;}
	.st2{fill:url(#SVGID_1_);}
	.st3{fill:url(#SVGID_2_);}
	.st4{fill:url(#SVGID_3_);}
	.st5{fill:url(#SVGID_4_);}
	.st6{fill:url(#SVGID_5_);}
	.st7{fill:url(#SVGID_6_);}
	.st8{fill:url(#SVGID_7_);}
	.st9{fill:url(#SVGID_8_);}
	.st10{fill:url(#SVGID_9_);}
	.st11{opacity:0.47;fill:#E35702;}
	.st12{fill:url(#SVGID_10_);}
	.st13{fill:url(#SVGID_11_);}
	.st14{fill:url(#SVGID_12_);}
	.st15{fill:#EB7808;}
	.st16{fill:#E35702;}
</style>
<g>
	<g>
		<path class="st0" d="M275.8,117c0,1.1-0.4,1.9-1.2,2.5s-1.8,0.9-3.1,0.9c-1.6,0-2.8-0.2-3.6-0.5v-0.9c0.9,0.4,2.1,0.6,3.5,0.6
			c1.1,0,1.9-0.2,2.5-0.7c0.6-0.5,0.9-1.1,0.9-1.9c0-0.5-0.1-0.9-0.3-1.2s-0.5-0.6-1-0.9s-1.1-0.5-2-0.9c-1.3-0.5-2.2-0.9-2.7-1.5
			c-0.5-0.5-0.8-1.2-0.8-2.1c0-1,0.4-1.7,1.1-2.4c0.8-0.6,1.7-0.9,2.9-0.9c1.2,0,2.3,0.2,3.4,0.7l-0.3,0.8c-1.1-0.4-2.1-0.7-3.1-0.7
			c-0.9,0-1.7,0.2-2.3,0.7s-0.8,1-0.8,1.8c0,0.5,0.1,0.9,0.3,1.2s0.5,0.6,0.8,0.8c0.4,0.2,1.1,0.5,2,0.9c1,0.3,1.8,0.7,2.3,1
			c0.5,0.3,0.9,0.7,1.1,1.1C275.7,115.9,275.8,116.4,275.8,117z"/>
		<path class="st0" d="M280.8,119.7c0.6,0,1,0,1.4-0.1v0.7c-0.4,0.1-0.9,0.2-1.5,0.2c-0.8,0-1.5-0.2-1.9-0.7s-0.6-1.2-0.6-2.1v-6.2
			h-1.4V111l1.4-0.4l0.4-2.2h0.4v2.3h2.8v0.8h-2.8v6c0,0.7,0.1,1.3,0.4,1.6S280.3,119.7,280.8,119.7z"/>
		<path class="st0" d="M292.2,115.5c0,1.6-0.4,2.8-1.1,3.7c-0.8,0.9-1.8,1.3-3.1,1.3c-0.8,0-1.6-0.2-2.2-0.6s-1.1-1-1.5-1.7
			s-0.5-1.6-0.5-2.6c0-1.6,0.4-2.8,1.1-3.6c0.8-0.9,1.8-1.3,3.1-1.3c1.3,0,2.3,0.4,3.1,1.3C291.9,112.8,292.2,114,292.2,115.5z
			 M284.7,115.5c0,1.3,0.3,2.3,0.9,3.1c0.6,0.7,1.4,1.1,2.4,1.1s1.9-0.4,2.4-1.1c0.6-0.7,0.9-1.8,0.9-3.1c0-1.3-0.3-2.3-0.9-3.1
			s-1.4-1.1-2.5-1.1s-1.9,0.4-2.4,1.1S284.7,114.2,284.7,115.5z"/>
		<path class="st0" d="M298.6,110.6c0.4,0,0.8,0,1.3,0.1l-0.2,0.8c-0.4-0.1-0.8-0.1-1.2-0.1c-0.8,0-1.5,0.3-2,1s-0.8,1.6-0.8,2.6
			v5.3h-0.9v-9.6h0.7l0.1,1.7h0.1c0.4-0.7,0.8-1.2,1.3-1.5C297.5,110.7,298,110.6,298.6,110.6z"/>
		<path class="st0" d="M305.8,120.5c-1.4,0-2.5-0.4-3.2-1.3s-1.2-2.1-1.2-3.6c0-1.5,0.4-2.7,1.1-3.7c0.8-0.9,1.8-1.4,3-1.4
			c1.1,0,2,0.4,2.7,1.2s1,1.9,1,3.2v0.7h-6.9c0,1.3,0.3,2.3,0.9,3s1.5,1,2.6,1c0.5,0,1,0,1.4-0.1s0.9-0.2,1.6-0.5v0.8
			c-0.5,0.2-1,0.4-1.5,0.5C306.8,120.4,306.3,120.5,305.8,120.5z M305.5,111.3c-0.9,0-1.7,0.3-2.2,0.9c-0.6,0.6-0.9,1.5-1,2.6h5.9
			c0-1.1-0.2-2-0.7-2.6C307,111.6,306.3,111.3,305.5,111.3z"/>
		<path class="st0" d="M312.8,118.2l0.1,0.2c-0.4,1.6-0.9,3-1.5,4.2h-0.6c0.5-1.6,0.8-3.1,1-4.4H312.8z"/>
		<path class="st0" d="M327.6,117c0,1.1-0.4,1.9-1.2,2.5s-1.8,0.9-3.1,0.9c-1.6,0-2.8-0.2-3.6-0.5v-0.9c0.9,0.4,2.1,0.6,3.5,0.6
			c1.1,0,1.9-0.2,2.5-0.7c0.6-0.5,0.9-1.1,0.9-1.9c0-0.5-0.1-0.9-0.3-1.2s-0.5-0.6-1-0.9s-1.1-0.5-2-0.9c-1.3-0.5-2.2-0.9-2.7-1.5
			c-0.5-0.5-0.8-1.2-0.8-2.1c0-1,0.4-1.7,1.1-2.4c0.8-0.6,1.7-0.9,2.9-0.9c1.2,0,2.3,0.2,3.4,0.7l-0.3,0.8c-1.1-0.4-2.1-0.7-3.1-0.7
			c-0.9,0-1.7,0.2-2.3,0.7s-0.8,1-0.8,1.8c0,0.5,0.1,0.9,0.3,1.2s0.5,0.6,0.8,0.8c0.4,0.2,1.1,0.5,2,0.9c1,0.3,1.8,0.7,2.3,1
			c0.5,0.3,0.9,0.7,1.1,1.1C327.5,115.9,327.6,116.4,327.6,117z"/>
		<path class="st0" d="M328.5,110.7h0.9l2,5.4c0.6,1.6,1,2.8,1.2,3.3h0.1c0.2-0.8,0.6-1.9,1.2-3.4l2-5.3h0.9l-4.3,11.1
			c-0.3,0.9-0.6,1.5-0.9,1.8s-0.5,0.6-0.8,0.7s-0.7,0.2-1.1,0.2c-0.3,0-0.7-0.1-1.1-0.2v-0.8c0.3,0.1,0.7,0.1,1.1,0.1
			c0.3,0,0.6-0.1,0.8-0.2s0.4-0.4,0.6-0.7s0.4-0.8,0.6-1.4c0.2-0.6,0.4-1.1,0.5-1.3L328.5,110.7z"/>
		<path class="st0" d="M345,120.3v-6.2c0-1-0.2-1.7-0.6-2.1c-0.4-0.4-1-0.7-1.9-0.7c-1.1,0-2,0.3-2.5,0.9c-0.5,0.6-0.8,1.5-0.8,2.8
			v5.3h-0.9v-9.6h0.7l0.2,1.3h0.1c0.6-1,1.7-1.5,3.3-1.5c2.2,0,3.3,1.2,3.3,3.5v6.2H345z"/>
		<path class="st0" d="M352.8,120.5c-1.4,0-2.4-0.4-3.2-1.3s-1.2-2.1-1.2-3.6c0-1.6,0.4-2.8,1.2-3.7c0.8-0.9,1.9-1.3,3.3-1.3
			c0.8,0,1.6,0.1,2.4,0.4l-0.2,0.8c-0.8-0.3-1.5-0.4-2.2-0.4c-1.2,0-2.1,0.4-2.7,1.1s-0.9,1.8-0.9,3.1c0,1.3,0.3,2.3,0.9,3
			c0.6,0.7,1.4,1.1,2.5,1.1c0.9,0,1.7-0.2,2.4-0.5v0.8C354.6,120.3,353.8,120.5,352.8,120.5z"/>
		<path class="st0" d="M358.5,118.2l0.1,0.2c-0.4,1.6-0.9,3-1.5,4.2h-0.6c0.5-1.6,0.8-3.1,1-4.4H358.5z"/>
		<path class="st0" d="M373.4,117c0,1.1-0.4,1.9-1.2,2.5s-1.8,0.9-3.1,0.9c-1.6,0-2.8-0.2-3.6-0.5v-0.9c0.9,0.4,2.1,0.6,3.5,0.6
			c1.1,0,1.9-0.2,2.5-0.7c0.6-0.5,0.9-1.1,0.9-1.9c0-0.5-0.1-0.9-0.3-1.2s-0.5-0.6-1-0.9s-1.1-0.5-2-0.9c-1.3-0.5-2.2-0.9-2.7-1.5
			c-0.5-0.5-0.8-1.2-0.8-2.1c0-1,0.4-1.7,1.1-2.4c0.8-0.6,1.7-0.9,2.9-0.9c1.2,0,2.3,0.2,3.4,0.7l-0.3,0.8c-1.1-0.4-2.1-0.7-3.1-0.7
			c-0.9,0-1.7,0.2-2.3,0.7s-0.8,1-0.8,1.8c0,0.5,0.1,0.9,0.3,1.2s0.5,0.6,0.8,0.8c0.4,0.2,1.1,0.5,2,0.9c1,0.3,1.8,0.7,2.3,1
			c0.5,0.3,0.9,0.7,1.1,1.1C373.3,115.9,373.4,116.4,373.4,117z"/>
		<path class="st0" d="M382.6,120.3v-6.2c0-1-0.2-1.7-0.6-2.1c-0.4-0.4-1-0.7-1.9-0.7c-1.1,0-2,0.3-2.5,0.9
			c-0.5,0.6-0.8,1.5-0.8,2.8v5.3h-0.9v-13.7h0.9v4.4l0,1.2h0.1c0.4-0.6,0.8-1,1.4-1.2s1.2-0.4,2-0.4c2.2,0,3.3,1.2,3.3,3.5v6.2
			H382.6z"/>
		<path class="st0" d="M392.3,120.3l-0.2-1.5H392c-0.5,0.6-1,1.1-1.5,1.3c-0.5,0.3-1.1,0.4-1.8,0.4c-0.9,0-1.7-0.2-2.2-0.7
			s-0.8-1.1-0.8-2c0-0.9,0.4-1.7,1.2-2.2s1.9-0.8,3.4-0.8l1.8-0.1v-0.6c0-0.9-0.2-1.6-0.6-2.1s-1-0.7-1.8-0.7
			c-0.9,0-1.8,0.2-2.8,0.7l-0.3-0.8c1-0.5,2.1-0.7,3.1-0.7c1,0,1.8,0.3,2.4,0.8s0.8,1.4,0.8,2.5v6.4H392.3z M388.8,119.7
			c1,0,1.8-0.3,2.4-0.9c0.6-0.6,0.9-1.4,0.9-2.4v-0.9l-1.7,0.1c-1.3,0.1-2.3,0.3-2.9,0.6c-0.6,0.4-0.9,0.9-0.9,1.7
			c0,0.6,0.2,1.1,0.5,1.4S388.1,119.7,388.8,119.7z"/>
		<path class="st0" d="M399.8,110.6c0.4,0,0.8,0,1.3,0.1l-0.2,0.8c-0.4-0.1-0.8-0.1-1.2-0.1c-0.8,0-1.5,0.3-2,1s-0.8,1.6-0.8,2.6
			v5.3h-0.9v-9.6h0.7l0.1,1.7h0.1c0.4-0.7,0.8-1.2,1.3-1.5C398.6,110.7,399.2,110.6,399.8,110.6z"/>
		<path class="st0" d="M406.9,120.5c-1.4,0-2.5-0.4-3.2-1.3s-1.2-2.1-1.2-3.6c0-1.5,0.4-2.7,1.1-3.7c0.8-0.9,1.8-1.4,3-1.4
			c1.1,0,2,0.4,2.7,1.2s1,1.9,1,3.2v0.7h-6.9c0,1.3,0.3,2.3,0.9,3s1.5,1,2.6,1c0.5,0,1,0,1.4-0.1s0.9-0.2,1.6-0.5v0.8
			c-0.5,0.2-1,0.4-1.5,0.5C408,120.4,407.5,120.5,406.9,120.5z M406.7,111.3c-0.9,0-1.7,0.3-2.2,0.9c-0.6,0.6-0.9,1.5-1,2.6h5.9
			c0-1.1-0.2-2-0.7-2.6C408.2,111.6,407.5,111.3,406.7,111.3z"/>
		<path class="st0" d="M423.4,120.3l-0.2-1.5h-0.1c-0.5,0.6-1,1.1-1.5,1.3c-0.5,0.3-1.1,0.4-1.8,0.4c-0.9,0-1.7-0.2-2.2-0.7
			s-0.8-1.1-0.8-2c0-0.9,0.4-1.7,1.2-2.2s1.9-0.8,3.4-0.8l1.8-0.1v-0.6c0-0.9-0.2-1.6-0.6-2.1s-1-0.7-1.8-0.7
			c-0.9,0-1.8,0.2-2.8,0.7l-0.3-0.8c1-0.5,2.1-0.7,3.1-0.7c1,0,1.8,0.3,2.4,0.8s0.8,1.4,0.8,2.5v6.4H423.4z M419.9,119.7
			c1,0,1.8-0.3,2.4-0.9c0.6-0.6,0.9-1.4,0.9-2.4v-0.9l-1.7,0.1c-1.3,0.1-2.3,0.3-2.9,0.6c-0.6,0.4-0.9,0.9-0.9,1.7
			c0,0.6,0.2,1.1,0.5,1.4S419.2,119.7,419.9,119.7z"/>
		<path class="st0" d="M433.8,120.3v-6.2c0-1-0.2-1.7-0.6-2.1c-0.4-0.4-1-0.7-1.9-0.7c-1.1,0-2,0.3-2.5,0.9
			c-0.5,0.6-0.8,1.5-0.8,2.8v5.3h-0.9v-9.6h0.7l0.2,1.3h0.1c0.6-1,1.7-1.5,3.3-1.5c2.2,0,3.3,1.2,3.3,3.5v6.2H433.8z"/>
		<path class="st0" d="M441.3,110.6c0.7,0,1.3,0.1,1.8,0.4s1,0.7,1.4,1.3h0.1c0-0.7-0.1-1.5-0.1-2.2v-3.4h0.9v13.7h-0.6l-0.2-1.5
			h-0.1c-0.7,1.1-1.8,1.6-3.1,1.6c-1.3,0-2.3-0.4-3-1.2s-1-2-1-3.6c0-1.7,0.3-2.9,1-3.8S440,110.6,441.3,110.6z M441.3,111.3
			c-1,0-1.8,0.4-2.4,1.1s-0.8,1.8-0.8,3.2c0,2.7,1.1,4.1,3.2,4.1c1.1,0,1.9-0.3,2.4-0.9s0.8-1.7,0.8-3.1v-0.1c0-1.5-0.2-2.5-0.7-3.2
			C443.2,111.7,442.4,111.3,441.3,111.3z"/>
		<path class="st0" d="M460.5,117c0,1.1-0.4,1.9-1.2,2.5c-0.8,0.6-1.8,0.9-3.1,0.9c-1.6,0-2.8-0.2-3.6-0.5v-0.9
			c0.9,0.4,2.1,0.6,3.5,0.6c1.1,0,1.9-0.2,2.5-0.7c0.6-0.5,0.9-1.1,0.9-1.9c0-0.5-0.1-0.9-0.3-1.2s-0.5-0.6-1-0.9s-1.1-0.5-2-0.9
			c-1.3-0.5-2.2-0.9-2.7-1.5c-0.5-0.5-0.8-1.2-0.8-2.1c0-1,0.4-1.7,1.1-2.4c0.8-0.6,1.7-0.9,2.9-0.9c1.2,0,2.3,0.2,3.4,0.7l-0.3,0.8
			c-1.1-0.4-2.1-0.7-3.1-0.7c-0.9,0-1.7,0.2-2.3,0.7s-0.8,1-0.8,1.8c0,0.5,0.1,0.9,0.3,1.2s0.5,0.6,0.8,0.8c0.4,0.2,1.1,0.5,2,0.9
			c1,0.3,1.8,0.7,2.3,1c0.5,0.3,0.9,0.7,1.1,1.1C460.4,115.9,460.5,116.4,460.5,117z"/>
		<path class="st0" d="M466.8,120.5c-1.4,0-2.5-0.4-3.2-1.3s-1.2-2.1-1.2-3.6c0-1.5,0.4-2.7,1.1-3.7c0.8-0.9,1.8-1.4,3-1.4
			c1.1,0,2,0.4,2.7,1.2s1,1.9,1,3.2v0.7h-6.9c0,1.3,0.3,2.3,0.9,3s1.5,1,2.6,1c0.5,0,1,0,1.4-0.1s0.9-0.2,1.6-0.5v0.8
			c-0.5,0.2-1,0.4-1.5,0.5C467.9,120.4,467.4,120.5,466.8,120.5z M466.6,111.3c-0.9,0-1.7,0.3-2.2,0.9c-0.6,0.6-0.9,1.5-1,2.6h5.9
			c0-1.1-0.2-2-0.7-2.6C468.1,111.6,467.4,111.3,466.6,111.3z"/>
		<path class="st0" d="M473.7,120.3h-0.9v-13.7h0.9V120.3z"/>
		<path class="st0" d="M480.5,111.5h-2.2v8.8h-0.9v-8.8h-1.8V111l1.8-0.3v-0.7c0-1.2,0.2-2,0.6-2.6c0.4-0.5,1.1-0.8,2.1-0.8
			c0.5,0,1.1,0.1,1.6,0.2l-0.2,0.8c-0.5-0.1-0.9-0.2-1.4-0.2c-0.7,0-1.2,0.2-1.4,0.6s-0.4,1.1-0.4,2v0.9h2.2V111.5z"/>
		<path class="st0" d="M481.5,115.8v-0.7h4.2v0.7H481.5z"/>
		<path class="st0" d="M497.6,120.3h-0.9V114h-7.5v6.3h-0.9v-12.8h0.9v5.7h7.5v-5.7h0.9V120.3z"/>
		<path class="st0" d="M509,115.5c0,1.6-0.4,2.8-1.1,3.7c-0.8,0.9-1.8,1.3-3.1,1.3c-0.8,0-1.6-0.2-2.2-0.6s-1.1-1-1.5-1.7
			s-0.5-1.6-0.5-2.6c0-1.6,0.4-2.8,1.1-3.6c0.8-0.9,1.8-1.3,3.1-1.3c1.3,0,2.3,0.4,3.1,1.3C508.6,112.8,509,114,509,115.5z
			 M501.4,115.5c0,1.3,0.3,2.3,0.9,3.1c0.6,0.7,1.4,1.1,2.4,1.1s1.9-0.4,2.4-1.1c0.6-0.7,0.9-1.8,0.9-3.1c0-1.3-0.3-2.3-0.9-3.1
			s-1.4-1.1-2.5-1.1s-1.9,0.4-2.4,1.1S501.4,114.2,501.4,115.5z"/>
		<path class="st0" d="M517.5,117.8c0,0.9-0.3,1.5-1,2s-1.6,0.7-2.8,0.7c-1.3,0-2.3-0.2-3-0.6v-0.9c1,0.5,2,0.7,3,0.7
			c0.9,0,1.7-0.2,2.1-0.5c0.5-0.3,0.7-0.7,0.7-1.3c0-0.5-0.2-0.9-0.6-1.2s-1-0.7-1.9-1c-1-0.3-1.6-0.6-2-0.9
			c-0.4-0.2-0.7-0.5-0.9-0.8c-0.2-0.3-0.3-0.7-0.3-1.1c0-0.7,0.3-1.3,0.9-1.7s1.4-0.6,2.5-0.6c1,0,2,0.2,2.9,0.6l-0.3,0.8
			c-0.9-0.4-1.8-0.6-2.6-0.6c-0.8,0-1.4,0.1-1.9,0.4s-0.7,0.6-0.7,1.1c0,0.5,0.2,0.9,0.5,1.2s1,0.6,2.1,1c0.9,0.3,1.5,0.6,1.9,0.8
			s0.7,0.5,0.9,0.8S517.5,117.4,517.5,117.8z"/>
		<path class="st0" d="M522.5,119.7c0.6,0,1,0,1.4-0.1v0.7c-0.4,0.1-0.9,0.2-1.5,0.2c-0.8,0-1.5-0.2-1.9-0.7s-0.6-1.2-0.6-2.1v-6.2
			h-1.4V111l1.4-0.4l0.4-2.2h0.4v2.3h2.8v0.8h-2.8v6c0,0.7,0.1,1.3,0.4,1.6S522,119.7,522.5,119.7z"/>
		<path class="st0" d="M525.8,119.6c0-0.6,0.2-0.9,0.7-0.9c0.5,0,0.7,0.3,0.7,0.9s-0.2,0.9-0.7,0.9
			C526.1,120.5,525.8,120.2,525.8,119.6z"/>
	</g>
	<g>
		<path class="st1" d="M279.5,66.2v29h-11.6V39.6h11.6V65l15.8-25.4h13.8l-17.8,25.8l19.8,29.8h-14.7L279.5,66.2z"/>
		<path class="st1" d="M325.1,47.7c-1.3,1.3-2.9,1.9-4.7,1.9c-1.8,0-3.4-0.6-4.6-1.9c-1.3-1.3-1.9-2.9-1.9-4.7c0-1.9,0.7-3.4,2-4.7
			c1.3-1.3,2.9-1.9,4.8-1.9c1.8,0,3.3,0.6,4.6,1.9c1.3,1.3,1.9,2.9,1.9,4.7C327,44.8,326.3,46.4,325.1,47.7z M315,55l10.8-1.7v41.9
			H315V55z"/>
		<path class="st1" d="M358.7,68.7c0-2.3-0.3-3.9-0.8-4.7c-0.5-0.8-1.5-1.2-2.8-1.2c-1.1,0-2.3,0.3-3.6,1c-1.3,0.7-2.6,1.6-3.8,2.7
			v28.8h-10.7V65.5c0-3.6-0.5-6.8-1.4-9.6l9.5-2.7c1,1.7,1.5,3.4,1.5,5.1c0.8-0.6,1.6-1.1,2.3-1.6c0.7-0.5,1.5-1,2.4-1.4
			c1.1-0.6,2.2-1,3.5-1.3c1.3-0.3,2.6-0.4,3.8-0.4c2.3,0,4.3,0.5,6.1,1.6c1.8,1.1,3,2.5,3.7,4.3c0.5,1.4,0.8,3.3,0.8,5.8v29.9h-10.4
			V68.7z"/>
		<path class="st1" d="M392.3,96.2c-2.8,0-5.1-0.5-7.2-1.6c-2-1.1-3.4-2.5-4-4.3c-0.2-0.4-0.3-0.8-0.4-1.2c-0.1-0.3-0.2-0.7-0.2-1.2
			s-0.1-1-0.1-1.6c0-0.6,0-1.4,0-2.3V61.8h-4.1v-7.4h4.1c0-2,0-3.8,0-5.2c0-1.4,0.1-2.9,0.4-4.5l11-2.7c-0.2,1.9-0.4,3.9-0.5,6
			c-0.1,2.2-0.2,4.3-0.2,6.4h9.6l-2.7,7.4h-6.9v20.3c0,1.3,0.1,2.3,0.2,3.2c0.1,0.8,0.4,1.5,0.7,2c0.3,0.5,0.8,0.8,1.4,1
			c0.6,0.2,1.4,0.3,2.3,0.3c0.5,0,1-0.1,1.6-0.2c0.6-0.1,1.3-0.3,2.3-0.6l1.4,6.5C398,95.5,395.1,96.2,392.3,96.2z"/>
		<path class="st1" d="M440.2,83.6c-0.8,2.5-2.1,4.8-3.9,6.8c-1.5,1.8-3.4,3.1-5.5,4.2c-2.1,1-4.8,1.5-8,1.5c-2.8,0-5.3-0.5-7.5-1.5
			c-2.3-1-4.2-2.4-5.8-4.3c-1.6-1.8-2.8-4.1-3.7-6.7s-1.3-5.5-1.3-8.7c0-3.2,0.4-6.1,1.3-8.8s2.1-4.9,3.7-6.8
			c1.6-1.9,3.5-3.3,5.8-4.4c2.3-1,4.8-1.5,7.5-1.5c5.8,0,10.4,2.1,13.9,6.2c1.7,1.9,2.8,4.1,3.6,6.4c0.7,2.3,1.1,5.2,1.1,8.6
			C441.5,78.1,441,81.1,440.2,83.6z M427.7,63.6c-1.1-1.4-2.7-2.2-4.6-2.2c-1.3,0-2.4,0.4-3.4,1.1c-1,0.7-1.7,1.8-2.1,3
			c-0.4,1.1-0.7,2.3-0.8,3.8c-0.2,1.5-0.3,3.2-0.3,5.3c0,4.6,0.5,8.1,1.4,10.3c0.5,1.1,1.2,2,2.3,2.5c1,0.6,2.1,0.8,3.2,0.8
			c2.4,0,4.1-1.1,5.1-3.3c1-2.2,1.5-5.7,1.5-10.5C429.9,69.1,429.1,65.5,427.7,63.6z"/>
	</g>
	<g id="Cloud">
		<linearGradient id="SVGID_1_" gradientUnits="userSpaceOnUse" x1="22.0667" y1="86.9159" x2="110.9694" y2="94.6694">
			<stop  offset="0" style="stop-color:#FEEC7F"/>
			<stop  offset="1" style="stop-color:#F3A21B"/>
		</linearGradient>
		<path class="st2" d="M110.8,95.5H88.4l-17.6,0c-6.2-0.2-13.1-0.7-18.9-1.8c-2.9-0.5-5.6-1.2-8.2-1.9c-1.3-0.4-2.5-0.7-3.7-1.1
			c-1.2-0.4-2.3-0.8-3.4-1.2c-1.1-0.4-2.1-0.8-3.1-1.2c-1-0.4-1.9-0.9-2.7-1.3c-1.7-0.9-3.2-1.6-4.3-2.3c-1.2-0.7-2.1-1.3-2.7-1.7
			c-0.6-0.4-0.9-0.6-0.9-0.6s0.3,0.2,1,0.6c0.6,0.4,1.5,0.9,2.7,1.6c1.2,0.7,2.7,1.4,4.4,2.2c1.7,0.8,3.7,1.6,5.9,2.3
			c1.1,0.4,2.2,0.8,3.4,1.1c1.2,0.4,2.4,0.7,3.7,1c2.6,0.6,5.3,1.2,8.2,1.7c5.7,1,11.9,1.6,18.1,1.8
			C73.2,94.9,110.8,95.5,110.8,95.5z"/>
		
			<linearGradient id="SVGID_2_" gradientUnits="userSpaceOnUse" x1="4900.6426" y1="14.9202" x2="4900.6426" y2="99.9902" gradientTransform="matrix(-1 0 0 1 5066.3213 0)">
			<stop  offset="0" style="stop-color:#FEEC7F"/>
			<stop  offset="0.1894" style="stop-color:#FEE97B"/>
			<stop  offset="0.3937" style="stop-color:#FCDF6E"/>
			<stop  offset="0.6052" style="stop-color:#FACF58"/>
			<stop  offset="0.8201" style="stop-color:#F6B93A"/>
			<stop  offset="1" style="stop-color:#F3A21B"/>
		</linearGradient>
		<path class="st3" d="M232.4,63.2c0-16-13.2-31.4-28.9-31.4c-12.1,0-25.8,1.5-52,34.8C117.6,109.4,100,88.5,99,87.1
			c2.5,4.9,7.5,8.4,13.4,8.4h91.1C219.4,95.5,232.4,79.2,232.4,63.2z"/>
		
			<linearGradient id="SVGID_3_" gradientUnits="userSpaceOnUse" x1="5002.2505" y1="79.8847" x2="4919.2451" y2="79.8847" gradientTransform="matrix(-1 0 0 1 5066.3213 0)">
			<stop  offset="0" style="stop-color:#FEEC7F"/>
			<stop  offset="0.1105" style="stop-color:#FDE373"/>
			<stop  offset="0.7142" style="stop-color:#F6B434"/>
			<stop  offset="1" style="stop-color:#F3A21B"/>
		</linearGradient>
		<path class="st4" d="M112.5,95.5c-8.3,0-15.1-6.7-15.1-15s6.9-16.2,15-16.2c15.9,0,18.1,14.4,42.9,21.5
			c16.1,4.6,48.1,9.7,48.1,9.7H112.5z"/>
		<linearGradient id="SVGID_4_" gradientUnits="userSpaceOnUse" x1="162.5619" y1="7.8836" x2="162.5619" y2="94.1739">
			<stop  offset="0" style="stop-color:#FEEC7F"/>
			<stop  offset="0.6144" style="stop-color:#F7BC3F"/>
			<stop  offset="1" style="stop-color:#F3A21B"/>
		</linearGradient>
		<path class="st5" d="M203.4,95.5c-3.2-1.3-15.7-5.4-17.8-19c-2.1-13.8,6.2-21.2,3.6-37.1c-2.3-14-14-20.9-25.7-23.3
			c-6-1.2-12.6-0.9-19.3,1.5c-18.8,6.8-25.1,28.2-21.6,42.9c2.9,12.1,14.9,24,43.7,29.1C190.9,93.9,192.9,94.3,203.4,95.5z"/>
		<linearGradient id="SVGID_5_" gradientUnits="userSpaceOnUse" x1="151.1762" y1="34.9019" x2="151.1762" y2="96.4809">
			<stop  offset="0" style="stop-color:#F9C32E"/>
			<stop  offset="0.5169" style="stop-color:#F19819"/>
			<stop  offset="1" style="stop-color:#E96C04"/>
		</linearGradient>
		<path class="st6" d="M185.6,76.5c-2.1-13.8,6.2-21.2,3.6-37.1c-0.3-1.8-0.8-3.5-1.3-5.1c-9.1,3.6-20.5,12-36.4,32.2
			C117.6,109.4,100,88.5,99,87.1c2.5,4.9,7.6,8.4,13.5,8.4h91C200.2,94.2,187.7,90.1,185.6,76.5z"/>
		<linearGradient id="SVGID_6_" gradientUnits="userSpaceOnUse" x1="107.0426" y1="82.4156" x2="183.95" y2="82.4156">
			<stop  offset="0" style="stop-color:#F7B425"/>
			<stop  offset="6.246364e-02" style="stop-color:#F3A620"/>
			<stop  offset="0.2131" style="stop-color:#EC8816"/>
			<stop  offset="0.3736" style="stop-color:#E6720E"/>
			<stop  offset="0.5466" style="stop-color:#E26208"/>
			<stop  offset="0.7407" style="stop-color:#E05805"/>
			<stop  offset="1" style="stop-color:#DF5504"/>
		</linearGradient>
		<path class="st7" d="M126.5,69.3c4.1,7.6,21.3,19.9,76.9,26.2h0C159.4,89.8,138.9,81.5,126.5,69.3z"/>
		
			<linearGradient id="SVGID_7_" gradientUnits="userSpaceOnUse" x1="4987.7847" y1="86.9008" x2="4987.7847" y2="98.323" gradientTransform="matrix(-1 0 0 1 5066.3213 0)">
			<stop  offset="0" style="stop-color:#FEEC7F"/>
			<stop  offset="0.6058" style="stop-color:#F7BD40"/>
			<stop  offset="1" style="stop-color:#F3A21B"/>
		</linearGradient>
		<path class="st8" d="M70.9,95.5c-1.7,0-3-1.4-3-3.1c0-1.7,1.4-3.3,3-3.3c3.2,0,3.7,3.5,8.7,4.9c3.2,0.9,9.6,1.4,9.6,1.4H70.9z"/>
		<linearGradient id="SVGID_8_" gradientUnits="userSpaceOnUse" x1="101.5385" y1="69.0725" x2="101.5385" y2="91.6523">
			<stop  offset="0" style="stop-color:#FEEC7F"/>
			<stop  offset="0.2301" style="stop-color:#FEEA7C"/>
			<stop  offset="0.4238" style="stop-color:#FCE271"/>
			<stop  offset="0.6043" style="stop-color:#FBD560"/>
			<stop  offset="0.7768" style="stop-color:#F8C347"/>
			<stop  offset="0.9421" style="stop-color:#F4AC28"/>
			<stop  offset="1" style="stop-color:#F3A21B"/>
		</linearGradient>
		<path class="st9" d="M112.5,95.5c-4.3,0-8.4-2-11.2-4.9c-7.9-3-9.2-7.7-15.1-7.7c-3.3,0-6,3.2-6,6.5s2.7,6.1,6,6.1h18.1
			c3.8,0,18.6,0,18.6,0s-0.1,0-0.3,0H112.5z"/>
		<linearGradient id="SVGID_9_" gradientUnits="userSpaceOnUse" x1="206.0636" y1="34.1859" x2="206.0636" y2="77.6225">
			<stop  offset="0" style="stop-color:#F9C32E"/>
			<stop  offset="0.5169" style="stop-color:#F19819"/>
			<stop  offset="1" style="stop-color:#E96C04"/>
		</linearGradient>
		<path class="st10" d="M219.3,37.3c-1-0.8-2.1-1.5-3.1-2.1c-1.1-0.6-2.3-1.2-3.7-1.6c-2.6-1-5.3-1.5-7.9-1.8c-0.4,0-0.7,0-1.1,0
			c-4.7,0-9.7,0.2-15.6,2.5c0.6,1.6,1.1,3.3,1.3,5.1c1.8,11-1.7,18.1-3.3,25.9c7.7-6.2,22.5-6.4,30.8-5.9l0.9,0
			c0.9,0,1.7-0.1,2.4-0.3C228.1,57,228.6,44.7,219.3,37.3z"/>
		<path class="st11" d="M186,65.2c-0.7,3.4-1,7.1-0.4,11.3c2.1,13.6,14.4,17.4,17.8,19h0.1c5.5,0,10.6-2,14.9-5.1
			c-1-0.9-6.4-5.7-8-10.6c-5.1-15.5,6.5-20.1,7.2-20.4C212,59.3,193.7,59.1,186,65.2z"/>
		<linearGradient id="SVGID_10_" gradientUnits="userSpaceOnUse" x1="204.4573" y1="66.1336" x2="191.7408" y2="84.645">
			<stop  offset="0" style="stop-color:#E66A09"/>
			<stop  offset="1" style="stop-color:#E66A09"/>
		</linearGradient>
		<path class="st12" d="M185.6,76.5c1.8,11.8,11.7,17.2,17.8,19c-3.5-1.7-12.5-7.2-12.4-16.7c0.3-18.6,19.8-19.3,19.8-19.3h0
			c-8.2,0-18.7,0.9-24.9,5.7C185.1,68.7,184.9,72.3,185.6,76.5z"/>
		
			<linearGradient id="SVGID_11_" gradientUnits="userSpaceOnUse" x1="4958.7383" y1="84.6813" x2="4958.7383" y2="95.6651" gradientTransform="matrix(-1 0 0 1 5066.3213 0)">
			<stop  offset="0" style="stop-color:#F7B425"/>
			<stop  offset="6.246364e-02" style="stop-color:#F3A620"/>
			<stop  offset="0.2131" style="stop-color:#EC8816"/>
			<stop  offset="0.3736" style="stop-color:#E6720E"/>
			<stop  offset="0.5466" style="stop-color:#E26208"/>
			<stop  offset="0.7407" style="stop-color:#E05805"/>
			<stop  offset="1" style="stop-color:#DF5504"/>
		</linearGradient>
		<path class="st13" d="M116.2,95.5c-3.5-0.1-12.5-1.2-17.3-8.4c2.6,5.3,7.8,8.4,13.7,8.4H116.2z"/>
		<linearGradient id="SVGID_12_" gradientUnits="userSpaceOnUse" x1="193.7996" y1="25.1692" x2="193.7996" y2="74.4655">
			<stop  offset="0" style="stop-color:#F7B425"/>
			<stop  offset="0.3526" style="stop-color:#EF961A"/>
			<stop  offset="1" style="stop-color:#DF5504"/>
		</linearGradient>
		<path class="st14" d="M184.5,76.5c-2.1-13.8,6.9-21.2,4.3-37.1c-0.3-1.8-1-5.1-1-5.1c0.6,1.6,1.1,3.3,1.3,5.1
			c2.6,15.9-5.7,23.3-3.6,37.1c2.1,13.6,14.6,17.7,17.8,19C203.4,95.5,186.8,91.5,184.5,76.5z"/>
		<path class="st15" d="M110.8,95.5H88.4l-17.6,0c-1.2,0-1.9-0.8-1.9-0.8C70,94.8,110.8,95.5,110.8,95.5z"/>
		<path class="st16" d="M112.3,95.5H88.1c-2.8,0-4.2-0.5-4.2-0.5C95.7,95.2,112.3,95.5,112.3,95.5z"/>
		<path class="st16" d="M186,65.2c7.7-6.2,23.1-6.4,31.7-5.8c0,0-12-0.3-20.3,1.5C189,62.8,186,65.2,186,65.2z"/>
	</g>
</g>
</svg>
