<svg xmlns="http://www.w3.org/2000/svg" xmlns:xlink="http://www.w3.org/1999/xlink" version="1.1" x="0px" y="0px" viewBox="0 0 66 82.5" enable-background="new 0 0 66 66" xml:space="preserve"><g><path d="M7.876,8.549h15.013c0.414,0,0.75-0.336,0.75-0.75c0-0.414-0.336-0.75-0.75-0.75H7.876c-0.414,0-0.75,0.336-0.75,0.75   C7.126,8.213,7.462,8.549,7.876,8.549z"/><path d="M7.876,15.282h24.183c0.414,0,0.75-0.336,0.75-0.75c0-0.414-0.336-0.75-0.75-0.75H7.876c-0.414,0-0.75,0.336-0.75,0.75   C7.126,14.946,7.462,15.282,7.876,15.282z"/><path d="M7.126,55.139c0,0.414,0.336,0.75,0.75,0.75h34.126c0.414,0,0.75-0.336,0.75-0.75c0-0.414-0.336-0.75-0.75-0.75H7.876   C7.462,54.389,7.126,54.725,7.126,55.139z"/><path d="M7.876,22.898h34.126c0.414,0,0.75-0.336,0.75-0.75c0-0.414-0.336-0.75-0.75-0.75H7.876c-0.414,0-0.75,0.336-0.75,0.75   C7.126,22.563,7.462,22.898,7.876,22.898z"/><path d="M33.398,34.945c0.292,0.291,0.766,0.294,1.06,0c2.986-2.987,7.755-2.891,10.644-0.004c0.293,0.293,0.768,0.293,1.061-0.001   c0.293-0.293,0.293-0.768,0-1.06C40.402,28.126,31.887,33.434,33.398,34.945z"/><path d="M63.492,58.176l-7.371-7.222c-1.382-1.38-3.51-1.532-5.06-0.479l-2.515-2.515v-0.196c1.795-2.091,2.782-4.72,2.781-7.506   c-0.001-2.782-0.988-5.409-2.781-7.498V13.539c0-0.161-0.082-0.393-0.22-0.531c-7.229-7.229-4.552-4.552-11.789-11.789   c-0.004-0.004-0.01-0.005-0.014-0.009C36.38,1.075,36.158,1,36.006,1H2.081c-0.414,0-0.75,0.336-0.75,0.75v59.241   c0,0.414,0.336,0.75,0.75,0.75h45.714c0.414,0,0.75-0.336,0.75-0.75V50.082L50,51.537c-1.057,1.554-0.901,3.692,0.481,5.072   l7.371,7.221c1.561,1.561,4.088,1.559,5.646-0.001C65.054,62.273,65.066,59.75,63.492,58.176z M36.758,3.563   c5.659,5.659,3.567,3.567,9.226,9.226h-9.226V3.563z M47.045,60.241H2.831V2.5h32.427v11.039c0,0.414,0.336,0.75,0.75,0.75h11.037   v17.016c-2.512-2.017-5.869-2.947-9.066-2.445c-0.98,0.154-1.894,0.425-2.744,0.784H7.872c-0.414,0-0.75,0.336-0.75,0.75   c0,0.414,0.336,0.75,0.75,0.75h24.804c-2.166,1.697-3.612,4.121-4.173,6.746H9.257c-0.414,0-0.75,0.336-0.75,0.75   c0,0.414,0.336,0.75,0.75,0.75h19.025c-0.188,2.288,0.296,4.646,1.556,6.755H7.872c-0.414,0-0.75,0.336-0.75,0.75   s0.336,0.75,0.75,0.75h23.033c0.225,0.268,0.459,0.532,0.715,0.787c2.533,2.531,6.259,3.821,9.963,3.237   c2.024-0.317,3.888-1.158,5.462-2.439V60.241z M46.888,47.363C46.888,47.363,46.887,47.364,46.888,47.363   c-0.001,0.001-0.001,0.002-0.002,0.002c-1.515,1.515-3.428,2.491-5.535,2.822c-3.132,0.491-6.437-0.585-8.67-2.817   c-5.807-5.802-2.533-15.76,5.53-17.029c3.238-0.508,6.474,0.623,8.671,2.817c1.897,1.896,2.943,4.418,2.944,7.102   C49.828,42.943,48.784,45.466,46.888,47.363z M62.438,62.769c-0.94,0.941-2.577,0.948-3.531-0.004l-7.371-7.221   c-0.973-0.972-0.973-2.554-0.002-3.526c0.971-0.97,2.544-0.982,3.532,0.004l7.371,7.221C63.413,60.22,63.41,61.795,62.438,62.769z"/><path d="M44.419,35.789l-7.36,7.36l-1.91-1.91c-0.293-0.293-0.768-0.293-1.061,0c-0.293,0.293-0.293,0.768,0,1.061l2.44,2.44   c0.146,0.146,0.338,0.22,0.53,0.22c0.192,0,0.384-0.073,0.53-0.22l7.891-7.89c0.293-0.293,0.293-0.768,0-1.061   C45.187,35.496,44.712,35.496,44.419,35.789z"/></g><text x="0" y="81" fill="#000000" font-size="5px" font-weight="bold" font-family="'Helvetica Neue', Helvetica, Arial-Unicode, Arial, Sans-serif">Created by Vectors Market</text><text x="0" y="86" fill="#000000" font-size="5px" font-weight="bold" font-family="'Helvetica Neue', Helvetica, Arial-Unicode, Arial, Sans-serif">from the Noun Project</text></svg>