<?xml version="1.0" encoding="UTF-8" standalone="no"?>
<svg
   xmlns:dc="http://purl.org/dc/elements/1.1/"
   xmlns:cc="http://creativecommons.org/ns#"
   xmlns:rdf="http://www.w3.org/1999/02/22-rdf-syntax-ns#"
   xmlns:svg="http://www.w3.org/2000/svg"
   xmlns="http://www.w3.org/2000/svg"
   xmlns:sodipodi="http://sodipodi.sourceforge.net/DTD/sodipodi-0.dtd"
   xmlns:inkscape="http://www.inkscape.org/namespaces/inkscape"
   version="1.1"
   x="0px"
   y="0px"
   viewBox="0 0 100 100"
   enable-background="new 0 0 100 100"
   xml:space="preserve"
   id="svg2"
   inkscape:version="0.91 r13725"
   sodipodi:docname="logo-permissions.svg"
   width="100"
   height="100"><metadata
     id="metadata14"><rdf:RDF><cc:Work
         rdf:about=""><dc:format>image/svg+xml</dc:format><dc:type
           rdf:resource="http://purl.org/dc/dcmitype/StillImage" /><dc:title></dc:title></cc:Work></rdf:RDF></metadata><defs
     id="defs12" /><sodipodi:namedview
     pagecolor="#ffffff"
     bordercolor="#666666"
     borderopacity="1"
     objecttolerance="10"
     gridtolerance="10"
     guidetolerance="10"
     inkscape:pageopacity="0"
     inkscape:pageshadow="2"
     inkscape:window-width="1920"
     inkscape:window-height="1016"
     id="namedview10"
     showgrid="false"
     fit-margin-top="0"
     fit-margin-left="0"
     fit-margin-right="0"
     fit-margin-bottom="0"
     inkscape:zoom="1.888"
     inkscape:cx="-77.520547"
     inkscape:cy="126.60803"
     inkscape:window-x="0"
     inkscape:window-y="27"
     inkscape:window-maximized="1"
     inkscape:current-layer="svg2" /><path
     d="m 81.453736,20.599187 c 0,0 -11.708942,-9.476306 -31.176488,-9.476306 -19.467545,0 -31.176488,9.476306 -31.176488,9.476306 0,0 -0.392403,20.942439 0.405182,35.268904 0.884786,15.896078 30.771306,30.427766 30.771306,30.427766 0,0 29.88652,-14.531688 30.771306,-30.427766 0.797585,-14.326465 0.405182,-35.268904 0.405182,-35.268904 z M 75.224152,55.543344 C 74.748307,64.09427 59.588925,74.684639 50.277248,79.731753 40.965572,74.684639 25.806189,64.09427 25.330344,55.543344 24.731216,44.783084 24.818416,30.001822 24.890582,23.723375 c 3.870657,-2.339383 12.853076,-6.767071 25.386666,-6.767071 12.677923,0 21.553596,4.396116 25.385914,6.742264 0.07292,6.264164 0.16087,21.070234 -0.43901,31.844776 z m -25.63624,-4.864443 c 0.235291,-0.608901 -0.0669,-1.292975 -0.676557,-1.529018 -0.605894,-0.23454 -1.292975,0.0669 -1.528266,0.675805 -1.432797,3.703772 -6.515994,10.740714 -11.221822,13.336437 -0.571315,0.316478 -0.778792,1.035132 -0.463818,1.606447 0.215747,0.390148 0.620178,0.610404 1.036636,0.610404 0.192443,0 0.388644,-0.04736 0.570563,-0.146587 5.447785,-3.005416 10.721921,-10.513692 12.283264,-14.553488 z m 4.25028,2.283755 c 1.556832,-4.479558 -0.376617,-7.508277 -2.98136,-8.52236 -2.634813,-1.027615 -6.283709,-0.135312 -7.8661,3.527867 -1.345597,3.113665 -4.820092,8.549423 -8.878681,10.763267 -0.572818,0.31272 -0.784054,1.030622 -0.470582,1.604191 0.312719,0.571315 1.030621,0.784055 1.604191,0.470583 4.938864,-2.696454 8.645644,-8.963625 9.915315,-11.900634 0.996042,-2.304803 3.23319,-2.888145 4.838885,-2.262706 1.504211,0.584846 2.715999,2.349155 1.606446,5.544007 -1.728978,4.972692 -8.139729,11.711949 -12.295292,13.976911 -0.573569,0.311968 -0.784805,1.02987 -0.472086,1.60344 0.214995,0.393906 0.620177,0.616418 1.038891,0.616418 0.190187,0 0.384134,-0.04586 0.564549,-0.144332 4.612613,-2.513784 11.469141,-9.7349 13.395824,-15.276652 z M 52.465533,40.308037 c -1.798137,-0.699109 -3.748124,-0.881027 -5.630455,-0.525459 -3.503061,0.660019 -6.461118,3.062547 -7.915715,6.426538 -1.519246,3.518095 -3.760904,6.066459 -6.664836,7.574429 -0.579583,0.301443 -0.804351,1.014835 -0.504411,1.593667 0.302196,0.57808 1.013332,0.803599 1.593668,0.504411 3.399322,-1.765814 6.005569,-4.705829 7.745071,-8.735852 1.141878,-2.64233 3.453447,-4.526917 6.182226,-5.040348 1.455349,-0.27363 2.953546,-0.135311 4.336729,0.404431 3.417363,1.329058 6.184481,5.379378 4.185631,11.131614 -1.907138,5.486124 -7.560146,11.705184 -12.15998,15.013547 -0.52997,0.381127 -0.650998,1.119325 -0.26912,1.649295 0.230781,0.320988 0.592363,0.491631 0.960711,0.491631 0.23905,0 0.480355,-0.07292 0.689336,-0.222512 C 49.915666,67.04932 55.958822,60.367194 58.026078,54.417253 60.540615,47.187116 56.906001,42.03476 52.465533,40.308037 Z m 1.60795,-4.132258 C 51.50783,35.17673 48.721168,34.917383 46.014189,35.425552 41.071566,36.356194 37.23624,39.120304 35.211832,43.211217 l -0.05638,0.113512 c -0.696853,1.4125 -1.417762,2.873111 -2.619778,3.240707 -0.624687,0.190939 -0.976497,0.851709 -0.784806,1.476397 0.190188,0.623936 0.853965,0.974993 1.474894,0.784806 2.179265,-0.666785 3.216652,-2.767117 4.05032,-4.455503 l 0.05563,-0.112759 c 1.68613,-3.408343 4.925333,-5.720663 9.120737,-6.50998 2.267217,-0.428486 4.608104,-0.209732 6.764816,0.62995 5.505669,2.141678 9.597334,8.572726 6.764816,16.719221 -1.292975,3.718056 -4.065354,7.939018 -7.807465,11.884096 -0.448783,0.474342 -0.429238,1.222313 0.0436,1.671095 0.228526,0.21725 0.521701,0.323996 0.814124,0.323996 0.312719,0 0.625439,-0.123284 0.857723,-0.368348 3.968382,-4.185631 6.924183,-8.707285 8.324656,-12.735805 3.324149,-9.558244 -1.579385,-17.144701 -8.141234,-19.696823 z m 1.610206,-4.131507 c -3.341439,-1.302748 -6.973046,-1.638019 -10.489637,-0.976497 -5.159122,0.971987 -9.472547,3.91125 -12.472701,8.501312 -0.357823,0.546507 -0.20447,1.278692 0.342789,1.636515 0.547259,0.357824 1.280196,0.205223 1.635764,-0.342037 2.677661,-4.096175 6.355123,-6.609959 10.930902,-7.471442 3.088858,-0.581838 6.267923,-0.284905 9.195911,0.856221 7.301551,2.840035 13.059049,11.623997 9.344752,22.306077 -0.53899,1.547811 -1.271175,3.142982 -2.175506,4.739656 -0.32174,0.567556 -0.122532,1.289216 0.445776,1.611708 0.184926,0.103739 0.384134,0.153353 0.581839,0.153353 0.411948,0 0.811116,-0.215746 1.02987,-0.599128 0.974993,-1.72071 1.765813,-3.445178 2.35141,-5.128301 4.199915,-12.082552 -2.389749,-22.04673 -10.721169,-25.287437 z m 2.66864,-3.824801 c -6.928693,-2.897918 -14.886504,-2.314576 -21.29049,1.556832 -0.558535,0.338279 -0.737447,1.06445 -0.399169,1.623737 0.336024,0.557783 1.060691,0.736695 1.622985,0.39992 5.760505,-3.482764 12.921483,-4.00672 19.154826,-1.398969 5.951444,2.489729 10.084455,7.439117 11.636777,13.936318 0.129297,0.542749 0.614163,0.907337 1.148643,0.907337 0.09096,0 0.183422,-0.01052 0.275885,-0.03232 0.635211,-0.151849 1.026111,-0.789316 0.875013,-1.424528 -1.732737,-7.250437 -6.358882,-12.77941 -13.02447,-15.568327 z M 43.970235,24.678824 c 14.402391,-2.453646 21.228097,4.602089 23.494562,7.749582 0.230781,0.320988 0.593115,0.490879 0.960711,0.490879 0.23905,0 0.480355,-0.07217 0.689336,-0.222512 0.52997,-0.381127 0.649495,-1.120077 0.269119,-1.650046 -2.526563,-3.50682 -10.103999,-11.373671 -25.809889,-8.698266 -0.644233,0.109753 -1.075725,0.720158 -0.965973,1.363638 0.109001,0.644233 0.721661,1.077981 1.362134,0.966725 z"
     id="path4"
     inkscape:connector-curvature="0"
     style="fill:#000000" /><text
     x="-8.3985996"
     y="115"
     font-size="5px"
     font-weight="bold"
     id="text6"
     style="font-weight:bold;font-size:5px;font-family:'Helvetica Neue', Helvetica, Arial-Unicode, Arial, Sans-serif;fill:#000000">Created by Jason Grube</text>
<text
     x="-8.3985996"
     y="120"
     font-size="5px"
     font-weight="bold"
     id="text8"
     style="font-weight:bold;font-size:5px;font-family:'Helvetica Neue', Helvetica, Arial-Unicode, Arial, Sans-serif;fill:#000000">from the Noun Project</text>
</svg>