<?xml version="1.0" encoding="UTF-8" standalone="no"?>
<svg
   xmlns:dc="http://purl.org/dc/elements/1.1/"
   xmlns:cc="http://creativecommons.org/ns#"
   xmlns:rdf="http://www.w3.org/1999/02/22-rdf-syntax-ns#"
   xmlns:svg="http://www.w3.org/2000/svg"
   xmlns="http://www.w3.org/2000/svg"
   xmlns:sodipodi="http://sodipodi.sourceforge.net/DTD/sodipodi-0.dtd"
   xmlns:inkscape="http://www.inkscape.org/namespaces/inkscape"
   version="1.1"
   x="0px"
   y="0px"
   viewBox="0 0 91.300003 91.300003"
   enable-background="new 0 0 100 100"
   xml:space="preserve"
   id="svg2"
   inkscape:version="0.91 r13725"
   sodipodi:docname="logo-offline.svg"
   width="91.300003"
   height="91.300003"><metadata
     id="metadata28"><rdf:RDF><cc:Work
         rdf:about=""><dc:format>image/svg+xml</dc:format><dc:type
           rdf:resource="http://purl.org/dc/dcmitype/StillImage" /><dc:title></dc:title></cc:Work></rdf:RDF></metadata><defs
     id="defs26" /><sodipodi:namedview
     pagecolor="#ffffff"
     bordercolor="#666666"
     borderopacity="1"
     objecttolerance="10"
     gridtolerance="10"
     guidetolerance="10"
     inkscape:pageopacity="0"
     inkscape:pageshadow="2"
     inkscape:window-width="1920"
     inkscape:window-height="1025"
     id="namedview24"
     showgrid="false"
     fit-margin-top="0"
     fit-margin-left="0"
     fit-margin-right="0"
     fit-margin-bottom="0"
     inkscape:zoom="2.6700352"
     inkscape:cx="45.623795"
     inkscape:cy="41.642653"
     inkscape:window-x="0"
     inkscape:window-y="27"
     inkscape:window-maximized="1"
     inkscape:current-layer="svg2" /><g
     id="g4"
     transform="translate(-4.627,-4.35)"><path
       d="m 50.048,61.368 c 4.418,0 8.421,1.798 11.323,4.699 l 4.691,-4.691 C 62.689,58.004 58.261,55.69 53.325,54.972 l -6.799,6.8 c 1.135,-0.256 2.311,-0.404 3.522,-0.404 z"
       id="path6"
       inkscape:connector-curvature="0" /><path
       d="m 43.477,70.818 6.571,6.572 6.571,-6.572 c -1.681,-1.683 -4.006,-2.723 -6.571,-2.722 -2.566,10e-4 -4.89,1.04 -6.571,2.722 z"
       id="path8"
       inkscape:connector-curvature="0" /><path
       d="m 50.048,41.544 c -9.882,-10e-4 -18.845,4.02 -25.336,10.51 l 4.693,4.691 c 3.758,-3.757 8.535,-6.491 13.872,-7.764 l 7.421,-7.422 c -0.217,-0.002 -0.432,-0.015 -0.65,-0.015 z"
       id="path10"
       inkscape:connector-curvature="0" /><path
       d="m 70.692,56.746 4.69,-4.691 C 72.127,48.8 68.249,46.167 63.947,44.35 l -5.167,5.166 c 4.549,1.428 8.621,3.938 11.912,7.23 z"
       id="path12"
       inkscape:connector-curvature="0" /><path
       d="m 50.048,28.319 c -13.528,0 -25.797,5.503 -34.682,14.39 l 4.692,4.692 c 7.684,-7.684 18.292,-12.442 29.991,-12.443 2.286,0 4.527,0.187 6.717,0.537 l 5.605,-5.606 c -3.939,-1.024 -8.068,-1.57 -12.323,-1.57 z"
       id="path14"
       inkscape:connector-curvature="0" /><path
       d="m 68.905,39.392 c 4.137,2.062 7.897,4.771 11.134,8.006 l 4.69,-4.691 C 81.506,39.483 77.832,36.712 73.818,34.479 l -4.913,4.913 z"
       id="path16"
       inkscape:connector-curvature="0" /></g><path
     d="M 45.65,0 C 20.479,0 0,20.479 0,45.65 0,70.822 20.479,91.3 45.65,91.3 70.822,91.3 91.3,70.821 91.3,45.65 91.301,20.479 70.822,0 45.65,0 Z m 0,6.586 c 9.419,0 18.069,3.351 24.823,8.923 L 15.509,70.473 C 9.937,63.719 6.586,55.069 6.586,45.65 6.586,24.11 24.111,6.586 45.65,6.586 Z m 0,78.127 c -9.418,0 -18.068,-3.35 -24.821,-8.921 L 75.793,20.829 c 5.571,6.753 8.921,15.403 8.921,24.821 0,21.54 -17.524,39.063 -39.064,39.063 z"
     id="path18"
     inkscape:connector-curvature="0" /><text
     x="-4.6269999"
     y="110.65"
     font-size="5px"
     font-weight="bold"
     id="text20"
     style="font-weight:bold;font-size:5px;font-family:'Helvetica Neue', Helvetica, Arial-Unicode, Arial, Sans-serif;fill:#000000">Created by Stéphanie Rusch</text>
<text
     x="-4.6269999"
     y="115.65"
     font-size="5px"
     font-weight="bold"
     id="text22"
     style="font-weight:bold;font-size:5px;font-family:'Helvetica Neue', Helvetica, Arial-Unicode, Arial, Sans-serif;fill:#000000">from the Noun Project</text>
</svg>