<?xml version="1.0" encoding="utf-8"?><!DOCTYPE svg PUBLIC "-//W3C//DTD SVG 1.0//EN" "http://www.w3.org/TR/2001/REC-SVG-20010904/DTD/svg10.dtd"><svg version="1.0" xmlns="http://www.w3.org/2000/svg" xmlns:xlink="http://www.w3.org/1999/xlink" x="0px" y="0px" viewBox="0 0 100 100" enable-background="new 0 0 100 100" xml:space="preserve"><path d="M50,0C22.386,0,0,22.386,0,50s22.386,50,50,50s50-22.386,50-50S77.614,0,50,0z M50,10.204c8.323,0,16.049,2.56,22.437,6.929
	c0.356,0.243,0.702,0.5,1.05,0.754L17.888,73.485c-0.255-0.347-0.511-0.693-0.755-1.049C12.764,66.048,10.204,58.324,10.204,50
	C10.204,28.021,28.021,10.204,50,10.204z M50,89.796c-8.308,0-16.019-2.549-22.399-6.902c-0.356-0.243-0.702-0.499-1.05-0.754
	L82.14,26.55c0.255,0.348,0.511,0.694,0.754,1.05c4.354,6.381,6.902,14.092,6.902,22.399C89.796,71.979,71.979,89.796,50,89.796z"></path><path d="M50,78.062c13.394,0,24.589-9.387,27.384-21.939H63.936c-2.372,5.339-7.717,9.064-13.936,9.064
	c-1.429,0-2.812-0.201-4.123-0.569l-9.764,9.764C40.209,76.719,44.946,78.062,50,78.062z"></path><path d="M77.266,43.367c-0.624-2.575-1.608-5.009-2.888-7.251l-7.251,7.251H77.266z"></path><path d="M34.754,49.94c0-8.42,6.826-15.246,15.246-15.246c1.481,0,2.913,0.214,4.267,0.609l9.661-9.661
	c-4.104-2.354-8.856-3.703-13.928-3.703c-15.498,0-28.062,12.563-28.062,28.061c0,5.07,1.352,9.822,3.704,13.927l9.721-9.721
	C34.97,52.852,34.754,51.422,34.754,49.94z"></path></svg>