<svg xmlns="http://www.w3.org/2000/svg" xmlns:xlink="http://www.w3.org/1999/xlink" version="1.1" x="0px" y="0px" viewBox="0 0 100 125" enable-background="new 0 0 100 100" xml:space="preserve"><path fill="#000000" d="M91.473,12.606C91.473,12.606,75.897,0,50,0C24.103,0,8.527,12.606,8.527,12.606S8.005,40.465,9.066,59.523  C10.243,80.669,50,100,50,100s39.757-19.331,40.934-40.477C91.995,40.465,91.473,12.606,91.473,12.606z M83.186,59.091  C82.553,70.466,62.387,84.554,50,91.268c-12.387-6.714-32.553-20.802-33.186-32.177c-0.797-14.314-0.681-33.977-0.585-42.329  C21.378,13.65,33.327,7.76,50,7.76c16.865,0,28.672,5.848,33.77,8.969C83.867,25.062,83.984,44.758,83.186,59.091z M49.083,52.62  c0.313-0.81-0.089-1.72-0.9-2.034c-0.806-0.312-1.72,0.089-2.033,0.899c-1.906,4.927-8.668,14.288-14.928,17.741  c-0.76,0.421-1.036,1.377-0.617,2.137c0.287,0.519,0.825,0.812,1.379,0.812c0.256,0,0.517-0.063,0.759-0.195  C39.99,67.982,47.006,57.994,49.083,52.62z M54.737,55.658c2.071-5.959-0.501-9.988-3.966-11.337  c-3.505-1.367-8.359-0.18-10.464,4.693c-1.79,4.142-6.412,11.373-11.811,14.318c-0.762,0.416-1.043,1.371-0.626,2.134  c0.416,0.76,1.371,1.043,2.134,0.626c6.57-3.587,11.501-11.924,13.19-15.831c1.325-3.066,4.301-3.842,6.437-3.01  c2.001,0.778,3.613,3.125,2.137,7.375c-2.3,6.615-10.828,15.58-16.356,18.593c-0.763,0.415-1.044,1.37-0.628,2.133  c0.286,0.524,0.825,0.82,1.382,0.82c0.253,0,0.511-0.061,0.751-0.192C43.053,72.636,52.174,63.03,54.737,55.658z M52.911,38.824  c-2.392-0.93-4.986-1.172-7.49-0.699c-4.66,0.878-8.595,4.074-10.53,8.549c-2.021,4.68-5.003,8.07-8.866,10.076  c-0.771,0.401-1.07,1.35-0.671,2.12c0.402,0.769,1.348,1.069,2.12,0.671c4.522-2.349,7.989-6.26,10.303-11.621  c1.519-3.515,4.594-6.022,8.224-6.705c1.936-0.364,3.929-0.18,5.769,0.538c4.546,1.768,8.227,7.156,5.568,14.808  c-2.537,7.298-10.057,15.571-16.176,19.972c-0.705,0.507-0.866,1.489-0.358,2.194c0.307,0.427,0.788,0.654,1.278,0.654  c0.318,0,0.639-0.097,0.917-0.296c6.52-4.688,14.559-13.577,17.309-21.492C63.653,47.975,58.818,41.121,52.911,38.824z   M55.05,33.327c-3.413-1.329-7.12-1.674-10.721-0.998c-6.575,1.238-11.677,4.915-14.37,10.357l-0.075,0.151  c-0.927,1.879-1.886,3.822-3.485,4.311c-0.831,0.254-1.299,1.133-1.044,1.964c0.253,0.83,1.136,1.297,1.962,1.044  c2.899-0.887,4.279-3.681,5.388-5.927l0.074-0.15c2.243-4.534,6.552-7.61,12.133-8.66c3.016-0.57,6.13-0.279,8.999,0.838  c7.324,2.849,12.767,11.404,8.999,22.241c-1.72,4.946-5.408,10.561-10.386,15.809c-0.597,0.631-0.571,1.626,0.058,2.223  c0.304,0.289,0.694,0.431,1.083,0.431c0.416,0,0.832-0.164,1.141-0.49c5.279-5.568,9.211-11.583,11.074-16.942  C70.302,46.814,63.779,36.722,55.05,33.327z M57.192,27.831c-4.445-1.733-9.276-2.179-13.954-1.299  c-6.863,1.293-12.601,5.203-16.592,11.309c-0.476,0.727-0.272,1.701,0.456,2.177c0.728,0.476,1.703,0.273,2.176-0.455  c3.562-5.449,8.454-8.793,14.541-9.939c4.109-0.774,8.338-0.379,12.233,1.139c9.713,3.778,17.372,15.463,12.431,29.673  c-0.717,2.059-1.691,4.181-2.894,6.305c-0.428,0.755-0.163,1.715,0.593,2.144c0.246,0.138,0.511,0.204,0.774,0.204  c0.548,0,1.079-0.287,1.37-0.797c1.297-2.289,2.349-4.583,3.128-6.822C77.041,45.397,68.275,32.142,57.192,27.831z M60.742,22.743  c-9.217-3.855-19.803-3.079-28.322,2.071c-0.743,0.45-0.981,1.416-0.531,2.16c0.447,0.742,1.411,0.98,2.159,0.532  c7.663-4.633,17.189-5.33,25.481-1.861c7.917,3.312,13.415,9.896,15.48,18.539c0.172,0.722,0.817,1.207,1.528,1.207  c0.121,0,0.244-0.014,0.367-0.043c0.845-0.202,1.365-1.05,1.164-1.895C75.763,33.808,69.609,26.453,60.742,22.743z M41.61,18.033  c19.159-3.264,28.239,6.122,31.254,10.309c0.307,0.427,0.789,0.653,1.278,0.653c0.318,0,0.639-0.096,0.917-0.296  c0.705-0.507,0.864-1.49,0.358-2.195c-3.361-4.665-13.441-15.13-34.334-11.571c-0.857,0.146-1.431,0.958-1.285,1.814  C39.943,17.604,40.758,18.181,41.61,18.033z"/><text x="0" y="115" fill="#000000" font-size="5px" font-weight="bold" font-family="'Helvetica Neue', Helvetica, Arial-Unicode, Arial, Sans-serif">Created by Jason Grube</text><text x="0" y="120" fill="#000000" font-size="5px" font-weight="bold" font-family="'Helvetica Neue', Helvetica, Arial-Unicode, Arial, Sans-serif">from the Noun Project</text></svg>