<?xml version="1.0" encoding="UTF-8" standalone="no"?>
<svg
   xmlns:dc="http://purl.org/dc/elements/1.1/"
   xmlns:cc="http://creativecommons.org/ns#"
   xmlns:rdf="http://www.w3.org/1999/02/22-rdf-syntax-ns#"
   xmlns:svg="http://www.w3.org/2000/svg"
   xmlns="http://www.w3.org/2000/svg"
   xmlns:sodipodi="http://sodipodi.sourceforge.net/DTD/sodipodi-0.dtd"
   xmlns:inkscape="http://www.inkscape.org/namespaces/inkscape"
   version="1.1"
   x="0px"
   y="0px"
   viewBox="0 0 86.924003 86.924004"
   enable-background="new 0 0 100 100"
   xml:space="preserve"
   id="svg2"
   inkscape:version="0.91 r13725"
   sodipodi:docname="logo-quotas.svg"
   width="86.924004"
   height="86.924004"><metadata
     id="metadata16"><rdf:RDF><cc:Work
         rdf:about=""><dc:format>image/svg+xml</dc:format><dc:type
           rdf:resource="http://purl.org/dc/dcmitype/StillImage" /><dc:title></dc:title></cc:Work></rdf:RDF></metadata><defs
     id="defs14" /><sodipodi:namedview
     pagecolor="#ffffff"
     bordercolor="#666666"
     borderopacity="1"
     objecttolerance="10"
     gridtolerance="10"
     guidetolerance="10"
     inkscape:pageopacity="0"
     inkscape:pageshadow="2"
     inkscape:window-width="1920"
     inkscape:window-height="1016"
     id="namedview12"
     showgrid="false"
     fit-margin-top="0"
     fit-margin-left="0"
     fit-margin-right="0"
     fit-margin-bottom="0"
     inkscape:zoom="1.888"
     inkscape:cx="-143.42956"
     inkscape:cy="29.901678"
     inkscape:window-x="0"
     inkscape:window-y="27"
     inkscape:window-maximized="1"
     inkscape:current-layer="svg2" /><path
     d="m 60.015,-7.2021484e-6 -32.984,0 C 23.164,-7.2021484e-6 20,3.1639928 20,7.0309928 l 0,72.8619992 c 0,3.867 3.164,7.031 7.031,7.031 l 32.984,0 c 3.867,0 7.031,-3.164 7.031,-7.031 l 0,-72.8609992 C 67.047,3.1649928 63.882,-7.2021484e-6 60.015,-7.2021484e-6 Z M 35.797,5.5319928 l 15.451,0 c 0.654,0 1.189,0.535 1.189,1.189 0,0.654 -0.535,1.189 -1.189,1.189 l -15.451,0 c -0.654,0 -1.189,-0.535 -1.189,-1.189 0,-0.654 0.535,-1.189 1.189,-1.189 z m 7.726,78.3999992 c -2.312,0 -4.187,-1.875 -4.187,-4.187 0,-2.312 1.875,-4.187 4.187,-4.187 2.312,0 4.187,1.875 4.187,4.187 0,2.313 -1.875,4.187 -4.187,4.187 z m 20.159,-11.323 -40.318,0 0,-59.763 40.318,0 0,59.763 z"
     id="path4"
     inkscape:connector-curvature="0"
     style="fill:#000000" /><path
     d="m 57.247,43.294992 c 0.228,-0.603 0.354,-1.256 0.354,-1.939 0,-3.026 -2.453,-5.479 -5.479,-5.479 -0.695,0 -1.358,0.131 -1.97,0.366 -0.921,-3.255 -3.914,-5.641 -7.464,-5.641 -3.936,0 -7.186,2.932 -7.688,6.73 -0.18,-0.013 -0.361,-0.019 -0.544,-0.019 -4.233,0 -7.664,3.431 -7.664,7.664 0,4.072 3.176,7.402 7.186,7.649 l 10.583,0.015 11.346,-0.027 c 2.442,-0.255 4.345,-2.32 4.345,-4.829 10e-4,-2.027 -1.241,-3.763 -3.005,-4.49 z m -1.496,6.798 -5.109,0.012 0,-11.35 0.418,-0.161 c 0.34,-0.131 0.698,-0.198 1.063,-0.198 1.631,0 2.958,1.327 2.958,2.958 0,0.36 -0.064,0.712 -0.191,1.047 l -0.867,2.29 2.264,0.933 c 0.879,0.362 1.447,1.21 1.447,2.16 -0.001,1.165 -0.846,2.139 -1.983,2.309 z"
     id="path6"
     inkscape:connector-curvature="0" /><text
     x="-26.476999"
     y="108.463"
     font-size="5px"
     font-weight="bold"
     id="text8"
     style="font-weight:bold;font-size:5px;font-family:'Helvetica Neue', Helvetica, Arial-Unicode, Arial, Sans-serif;fill:#000000">Created by  Thays Malcher</text>
<text
     x="-26.476999"
     y="113.463"
     font-size="5px"
     font-weight="bold"
     id="text10"
     style="font-weight:bold;font-size:5px;font-family:'Helvetica Neue', Helvetica, Arial-Unicode, Arial, Sans-serif;fill:#000000">from the Noun Project</text>
</svg>