<?xml version="1.0" encoding="UTF-8" standalone="no"?>
<!-- Generator: Adobe Illustrator 19.1.0, SVG Export Plug-In . SVG Version: 6.00 Build 0)  -->

<svg
   xmlns:dc="http://purl.org/dc/elements/1.1/"
   xmlns:cc="http://creativecommons.org/ns#"
   xmlns:rdf="http://www.w3.org/1999/02/22-rdf-syntax-ns#"
   xmlns:svg="http://www.w3.org/2000/svg"
   xmlns="http://www.w3.org/2000/svg"
   xmlns:sodipodi="http://sodipodi.sourceforge.net/DTD/sodipodi-0.dtd"
   xmlns:inkscape="http://www.inkscape.org/namespaces/inkscape"
   version="1.1"
   id="Calque_1"
   x="0px"
   y="0px"
   viewBox="0 0 155.5 35"
   enable-background="new 0 0 155.5 35"
   xml:space="preserve"
   inkscape:version="0.91 r13725"
   sodipodi:docname="scalingo-btn-01.svg"
   width="155.5"
   height="35"><metadata
     id="metadata57"><rdf:RDF><cc:Work
         rdf:about=""><dc:format>image/svg+xml</dc:format><dc:type
           rdf:resource="http://purl.org/dc/dcmitype/StillImage" /><dc:title></dc:title></cc:Work></rdf:RDF></metadata><defs
     id="defs55" /><sodipodi:namedview
     pagecolor="#ffffff"
     bordercolor="#666666"
     borderopacity="1"
     objecttolerance="10"
     gridtolerance="10"
     guidetolerance="10"
     inkscape:pageopacity="0"
     inkscape:pageshadow="2"
     inkscape:window-width="1920"
     inkscape:window-height="1163"
     id="namedview53"
     showgrid="false"
     inkscape:zoom="36.901167"
     inkscape:cx="93.692254"
     inkscape:cy="12.107873"
     inkscape:window-x="1920"
     inkscape:window-y="0"
     inkscape:window-maximized="1"
     inkscape:current-layer="g19"
     fit-margin-top="0"
     fit-margin-left="0"
     fit-margin-right="0"
     fit-margin-bottom="0" /><path
     d="M 151.5,35 4,35 C 1.8,35 0,33.2 0,31 L 0,4 C 0,1.8 1.8,0 4,0 l 147.5,0 c 2.2,0 4,1.8 4,4 l 0,27 c 0,2.2 -1.8,4 -4,4 z"
     id="path3"
     inkscape:connector-curvature="0"
     style="fill:#444444" /><path
     d="M 4,0 C 1.8,0 0,1.8 0,4 l 0,27 c 0,2.2 1.8,4 4,4 L 35,35 35,0 4,0 Z"
     id="path5"
     inkscape:connector-curvature="0"
     style="fill:#2b2b2b" /><g
     transform="translate(80,2400)"
     id="g7"><g
       id="g9"><path
         d="m -64.6,-2384.9 -6.1,-6.1 3.8,0 c 0.3,0 0.5,-0.2 0.5,-0.5 0,-0.3 -0.2,-0.5 -0.5,-0.5 l -5,0 c -0.3,0 -0.5,0.2 -0.5,0.5 l 0,5 c 0,0.3 0.2,0.5 0.5,0.5 0.3,0 0.5,-0.2 0.5,-0.5 l 0,-3.8 6.1,6.1 c 0.1,0.1 0.2,0.1 0.4,0.1 0.1,0 0.3,0 0.4,-0.1 0,-0.1 0,-0.5 -0.1,-0.7 l 0,0 z"
         id="path11"
         inkscape:connector-curvature="0"
         style="fill:#45b0e5" /><path
         d="m -53,-2392 -5,0 c -0.3,0 -0.5,0.2 -0.5,0.5 0,0.3 0.2,0.5 0.5,0.5 l 3.8,0 -6.1,6.1 c -0.2,0.2 -0.2,0.5 0,0.7 0.1,0.1 0.2,0.1 0.4,0.1 0.1,0 0.3,0 0.4,-0.1 l 6.1,-6.1 0,3.8 c 0,0.3 0.2,0.5 0.5,0.5 0.3,0 0.5,-0.2 0.5,-0.5 l 0,-5 c -0.1,-0.3 -0.3,-0.5 -0.6,-0.5 z"
         id="path13"
         inkscape:connector-curvature="0"
         style="fill:#45b0e5" /><path
         d="m -64.6,-2379.9 c -0.2,-0.2 -0.5,-0.2 -0.7,0 l -6.1,6.1 0,-3.8 c 0,-0.3 -0.2,-0.5 -0.5,-0.5 -0.3,0 -0.5,0.2 -0.5,0.5 l 0,5 c 0,0.3 0.2,0.5 0.5,0.5 l 5,0 c 0.3,0 0.5,-0.2 0.5,-0.5 0,-0.3 -0.2,-0.5 -0.5,-0.5 l -3.8,0 6.1,-6.1 c 0.1,-0.1 0.1,-0.5 0,-0.7 l 0,0 z"
         id="path15"
         inkscape:connector-curvature="0"
         style="fill:#45b0e5" /><path
         d="m -53,-2378 c -0.3,0 -0.5,0.2 -0.5,0.5 l 0,3.8 -6.1,-6.1 c -0.2,-0.2 -0.5,-0.2 -0.7,0 -0.2,0.2 -0.2,0.5 0,0.7 l 6.1,6.1 -3.8,0 c -0.3,0 -0.5,0.2 -0.5,0.5 0,0.3 0.2,0.5 0.5,0.5 l 5,0 c 0.3,0 0.5,-0.2 0.5,-0.5 l 0,-5 c 0,-0.3 -0.2,-0.5 -0.5,-0.5 z"
         id="path17"
         inkscape:connector-curvature="0"
         style="fill:#45b0e5" /></g></g><g
     id="g19"><path
       d="m 39.3,21.9 0,-9.6 3.5,0 c 1.1,0 2.1,0.4 2.8,1.1 0.7,0.7 1.1,1.7 1.1,2.8 l 0,1.8 c 0,1.2 -0.4,2.1 -1.1,2.8 -0.7,0.7 -1.7,1.1 -2.8,1.1 l -3.5,0 z m 2.2,-7.9 0,6.2 1.1,0 c 0.6,0 1.1,-0.2 1.4,-0.6 0.3,-0.4 0.5,-0.9 0.5,-1.6 l 0,-1.7 c 0,-0.7 -0.2,-1.2 -0.5,-1.6 -0.3,-0.4 -0.8,-0.6 -1.4,-0.6 l -1.1,0 z"
       id="path21"
       inkscape:connector-curvature="0"
       style="fill:#ffffff" /><path
       d="m 51.2,22.1 c -1.1,0 -1.9,-0.3 -2.5,-1 -0.6,-0.7 -0.9,-1.5 -0.9,-2.5 l 0,-0.3 c 0,-1.1 0.3,-2 0.9,-2.7 0.6,-0.7 1.4,-1 2.4,-1 1,0 1.7,0.3 2.3,0.9 0.6,0.6 0.8,1.4 0.8,2.4 l 0,1.1 -4.1,0 0,0 c 0,0.4 0.2,0.7 0.4,0.9 0.3,0.2 0.6,0.4 1,0.4 0.4,0 0.8,0 1,-0.1 0.3,-0.1 0.6,-0.2 1,-0.3 l 0.5,1.4 c -0.3,0.2 -0.7,0.4 -1.2,0.6 -0.5,0.1 -1,0.2 -1.6,0.2 z m -0.1,-5.7 c -0.3,0 -0.6,0.1 -0.7,0.3 -0.1,0.2 -0.3,0.5 -0.3,0.9 l 0,0 1.9,0 0,-0.2 C 52,17 51.9,16.8 51.8,16.6 51.7,16.4 51.4,16.4 51.1,16.4 Z"
       id="path23"
       inkscape:connector-curvature="0"
       style="fill:#ffffff" /><path
       d="M 61.899297,18.505862 C 61.899297,19.605862 61.5,20.4 61,21.1 c -0.5,0.7 -1.2,1 -2,1 -0.3,0 -0.6,-0.1 -0.9,-0.2 -0.3,-0.1 -0.5,-0.3 -0.7,-0.6 l 0,3.4 -2.2,0 0,-9.9 2.1,0 0.1,0.8 c 0.2,-0.3 0.4,-0.5 0.7,-0.7 0.3,-0.2 0.6,-0.2 1,-0.2 0.9,0 1.6,0.3 2.1,1 0.5,0.7 0.7,1.6 0.7,2.7 l 0,0.1 z M 59.5,18.4 c 0,-0.6 -0.1,-1.1 -0.3,-1.5 -0.2,-0.4 -0.5,-0.5 -0.8,-0.5 -0.3,0 -0.5,0 -0.6,0.1 -0.2,0.1 -0.3,0.2 -0.4,0.4 l 0,3 c 0.1,0.2 0.2,0.3 0.4,0.3 0.2,0.1 0.4,0.1 0.6,0.1 0.4,0 0.7,-0.2 0.8,-0.5 0.2,-0.3 0.3,-0.8 0.3,-1.4 z"
       id="path25"
       inkscape:connector-curvature="0"
       style="fill:#ffffff"
       sodipodi:nodetypes="csssccccccssssccsssccccscss" /><path
       d="m 65,21.9 -2.2,0 0,-10.3 2.2,0 0,10.3 z"
       id="path27"
       inkscape:connector-curvature="0"
       style="fill:#ffffff" /><path
       d="m 66.000352,18.3 c 0,-1.1 0.399648,-1.9 0.999648,-2.6 0.6,-0.7 1.5,-1 2.5,-1 1.1,0 1.9,0.3 2.5,1 0.6,0.7 0.9,1.5 0.9,2.6 l 0,0.1 c 0,1.1 -0.3,2 -0.9,2.6 -0.6,0.6 -1.5,1 -2.5,1 -1.1,0 -1.9,-0.3 -2.6,-1 C 66.2,20.3 66,19.5 66,18.4 l 0,-0.1 z M 68.3,18.4 c 0,0.6 0.1,1.1 0.3,1.4 0.2,0.3 0.5,0.5 1,0.5 0.4,0 0.7,-0.2 0.9,-0.5 0.2,-0.3 0.3,-0.8 0.3,-1.4 l 0,-0.1 c 0,-0.6 -0.1,-1 -0.3,-1.4 -0.2,-0.4 -0.5,-0.5 -1,-0.5 -0.4,0 -0.8,0.2 -0.9,0.5 -0.2,0.4 -0.3,0.8 -0.3,1.4 z"
       id="path29"
       inkscape:connector-curvature="0"
       style="fill:#ffffff"
       sodipodi:nodetypes="csssssssssccsssssssscss" /><path
       d="m 76.7,18.8 0,0 0,0 1.2,-4 2.4,0 -2.9,8.2 c -0.2,0.5 -0.5,1 -0.9,1.3 -0.3,0.3 -0.9,0.5 -1.7,0.5 -0.2,0 -0.4,0 -0.5,0 -0.1,0 -0.3,-0.1 -0.6,-0.1 L 74,23.1 c 0.1,0 0.1,0 0.1,0 0,0 0.1,0 0.1,0 0.4,0 0.6,-0.1 0.8,-0.2 0.2,-0.1 0.3,-0.3 0.4,-0.5 l 0.2,-0.5 -2.5,-7.2 2.4,0 1.2,4.1 z"
       id="path31"
       inkscape:connector-curvature="0"
       style="fill:#ffffff" /><path
       d="m 86.2,13.1 0,1.7 1.4,0 0,1 -1.4,0 0,4.3 c 0,0.3 0.1,0.6 0.2,0.7 0.1,0.1 0.3,0.2 0.6,0.2 0.1,0 0.2,0 0.2,0 0,0 0.2,0 0.2,-0.1 l 0.2,0.9 c -0.1,0.1 -0.2,0.1 -0.4,0.2 -0.2,0.1 -0.4,0.1 -0.6,0.1 -0.5,0 -0.9,-0.2 -1.3,-0.5 -0.3,-0.3 -0.5,-0.8 -0.5,-1.5 l 0,-4.3 -1.1,0 0,-1 1.1,0 0,-1.7 1.4,0 z"
       id="path33"
       inkscape:connector-curvature="0"
       style="fill:#ffffff" /><path
       d="m 88.9,18.3 c 0,-1.1 0.3,-1.9 0.9,-2.6 0.6,-0.7 1.3,-1 2.3,-1 1,0 1.8,0.3 2.3,1 0.6,0.7 0.9,1.6 0.9,2.6 l 0,0.1 c 0,1.1 -0.3,1.9 -0.9,2.6 -0.6,0.7 -1.4,1 -2.3,1 -0.9,0 -1.8,-0.3 -2.3,-1 -0.6,-0.7 -0.9,-1.5 -0.9,-2.6 l 0,-0.1 z m 1.3,0.1 c 0,0.8 0.2,1.4 0.5,1.9 0.3,0.5 0.8,0.7 1.4,0.7 0.6,0 1.1,-0.2 1.4,-0.7 0.3,-0.5 0.5,-1.1 0.5,-1.9 l 0,-0.1 c 0,-0.7 -0.2,-1.4 -0.5,-1.9 -0.3,-0.5 -0.8,-0.7 -1.4,-0.7 -0.6,0 -1.1,0.2 -1.4,0.7 -0.3,0.5 -0.5,1.1 -0.5,1.9 l 0,0.1 z"
       id="path35"
       inkscape:connector-curvature="0"
       style="fill:#ffffff" /><g
       transform="scale(0.9499955,1.0526366)"
       style="font-style:normal;font-weight:normal;font-size:160.58016968px;line-height:125%;font-family:Sans;letter-spacing:0px;word-spacing:0px;fill:#000000;fill-opacity:1;stroke:none;stroke-width:1px;stroke-linecap:butt;stroke-linejoin:miter;stroke-opacity:1"
       id="text4185"><path
         sodipodi:type="inkscape:offset"
         inkscape:radius="0"
         inkscape:original="M 126.73633 10.398438 L 126.73633 21.017578 L 129.04492 21.017578 L 129.04492 10.398438 L 126.73633 10.398438 z M 130.54883 10.398438 L 130.54883 11.943359 L 132.85547 11.943359 L 132.85547 10.398438 L 130.54883 10.398438 z M 107.22266 10.964844 C 106.1155 10.964844 105.20193 11.219683 104.48047 11.732422 C 103.76354 12.245161 103.4043 12.917681 103.4043 13.748047 C 103.4043 14.6011 103.70705 15.255233 104.31055 15.708984 C 104.91403 16.158198 105.84139 16.579845 107.09375 16.974609 C 107.6927 17.187873 108.10843 17.389502 108.33984 17.580078 C 108.57126 17.770653 108.68555 18.041236 108.68555 18.390625 C 108.68555 18.699176 108.56798 18.948096 108.33203 19.138672 C 108.10062 19.329247 107.74792 19.423828 107.27148 19.423828 C 106.6453 19.423828 106.17769 19.301666 105.86914 19.056641 C 105.56059 18.811615 105.40625 18.403759 105.40625 17.832031 L 103.16602 17.832031 L 103.15234 17.873047 C 103.12966 18.934826 103.53027 19.749216 104.35156 20.316406 C 105.17285 20.879058 106.14618 21.160156 107.27148 21.160156 C 108.39225 21.160156 109.29071 20.915833 109.9668 20.425781 C 110.64743 19.931192 110.98633 19.248156 110.98633 18.376953 C 110.98633 17.519362 110.70064 16.845521 110.12891 16.355469 C 109.56172 15.865417 108.71515 15.451011 107.58984 15.115234 C 106.8593 14.852058 106.36146 14.635316 106.09375 14.462891 C 105.83058 14.285927 105.69922 14.05212 105.69922 13.761719 C 105.69922 13.462243 105.83058 13.210047 106.09375 13.005859 C 106.35693 12.801671 106.71881 12.699219 107.18164 12.699219 C 107.65354 12.699219 108.0233 12.824655 108.29102 13.074219 C 108.55873 13.319244 108.69336 13.638439 108.69336 14.033203 L 110.92578 14.033203 L 110.93945 13.992188 C 110.96214 13.102834 110.62128 12.377105 109.91797 11.814453 C 109.21919 11.247263 108.32074 10.964844 107.22266 10.964844 z M 115.2207 13.515625 C 114.11355 13.515625 113.25779 13.865675 112.6543 14.564453 C 112.05081 15.258693 111.75 16.157149 111.75 17.259766 L 111.75 17.416016 C 111.75 18.52317 112.05081 19.4249 112.6543 20.119141 C 113.26232 20.813381 114.124 21.160156 115.24023 21.160156 C 116.12959 21.160156 116.85991 20.907962 117.43164 20.404297 C 118.00789 19.896095 118.28766 19.24064 118.26953 18.4375 L 118.25586 18.396484 L 116.15234 18.396484 C 116.15234 18.723186 116.07747 18.970784 115.92773 19.138672 C 115.77799 19.30656 115.54878 19.390625 115.24023 19.390625 C 114.79102 19.390625 114.47775 19.216576 114.30078 18.867188 C 114.12835 18.517799 114.04297 18.033118 114.04297 17.416016 L 114.04297 17.259766 C 114.04297 16.660814 114.12835 16.182683 114.30078 15.824219 C 114.47775 15.465755 114.7851 15.285156 115.2207 15.285156 C 115.53379 15.285156 115.7676 15.396802 115.92188 15.619141 C 116.07616 15.836941 116.15234 16.121314 116.15234 16.470703 L 118.25586 16.470703 L 118.26953 16.429688 C 118.28768 15.53126 118.0171 14.820643 117.45898 14.298828 C 116.90087 13.777013 116.15543 13.515625 115.2207 13.515625 z M 122.28516 13.515625 C 121.31413 13.515625 120.53324 13.743514 119.94336 14.197266 C 119.35351 14.64648 119.07569 15.207354 119.10742 15.878906 L 119.12109 15.919922 L 121.3457 15.925781 C 121.3457 15.662605 121.41006 15.470169 121.53711 15.347656 C 121.6687 15.220606 121.86573 15.15625 122.12891 15.15625 C 122.43745 15.15625 122.66339 15.240315 122.80859 15.408203 C 122.95833 15.576091 123.0332 15.817771 123.0332 16.130859 L 123.0332 16.654297 L 122.19727 16.654297 C 121.08104 16.654297 120.24826 16.854604 119.69922 17.253906 C 119.15471 17.64867 118.88281 18.210866 118.88281 18.941406 C 118.88281 19.612959 119.09955 20.150849 119.53516 20.554688 C 119.9753 20.958527 120.54537 21.160156 121.24414 21.160156 C 121.68428 21.160156 122.05863 21.071495 122.36719 20.894531 C 122.67573 20.713031 122.93844 20.470029 123.15625 20.166016 C 123.19252 20.320291 123.23522 20.470034 123.28516 20.615234 C 123.3396 20.760434 123.39936 20.89179 123.46289 21.009766 L 125.73633 21.017578 C 125.60474 20.686339 125.50556 20.351402 125.4375 20.015625 C 125.37397 19.679849 125.3418 19.314686 125.3418 18.919922 L 125.3418 16.144531 C 125.3418 15.300553 125.05742 14.651018 124.49023 14.197266 C 123.92758 13.743514 123.19266 13.515625 122.28516 13.515625 z M 138.53906 13.515625 C 138.10346 13.515625 137.7094 13.621352 137.35547 13.830078 C 137.00154 14.034267 136.70338 14.319961 136.46289 14.6875 L 136.375 13.652344 L 134.2168 13.652344 L 134.2168 21.017578 L 136.50977 21.017578 L 136.50977 15.722656 C 136.62774 15.58653 136.76829 15.479481 136.93164 15.402344 C 137.09953 15.325206 137.29065 15.285156 137.50391 15.285156 C 137.84422 15.285156 138.10101 15.373818 138.27344 15.550781 C 138.4504 15.723207 138.53906 16.02137 138.53906 16.443359 L 138.53906 21.017578 L 140.83984 21.017578 L 140.83984 16.449219 C 140.83984 15.428277 140.63494 14.684161 140.22656 14.216797 C 139.82273 13.749432 139.26053 13.515625 138.53906 13.515625 z M 144.6582 13.515625 C 143.74616 13.515625 143.04014 13.86895 142.54102 14.572266 C 142.04189 15.275581 141.79297 16.199664 141.79297 17.347656 L 141.79297 17.492188 C 141.79297 18.594804 142.03862 19.480791 142.5332 20.152344 C 143.03233 20.823896 143.73702 21.160156 144.64453 21.160156 C 144.99846 21.160156 145.31306 21.091204 145.58984 20.955078 C 145.86663 20.814415 146.10963 20.611463 146.31836 20.34375 L 146.31836 20.716797 C 146.31836 21.156936 146.19293 21.505665 145.94336 21.759766 C 145.6938 22.013866 145.33323 22.140625 144.86133 22.140625 C 144.4711 22.140625 144.12433 22.10385 143.82031 22.03125 C 143.5163 21.963187 143.19711 21.856138 142.86133 21.710938 L 142.48633 23.412109 C 142.86294 23.589073 143.26029 23.729622 143.67773 23.833984 C 144.09519 23.938347 144.49385 23.992188 144.875 23.992188 C 146.01845 23.992188 146.92938 23.694024 147.60547 23.099609 C 148.28156 22.505195 148.61914 21.71511 148.61914 20.730469 L 148.61914 13.652344 L 146.60352 13.652344 L 146.44727 14.578125 C 146.234 14.237812 145.98048 13.976423 145.68555 13.794922 C 145.39061 13.608883 145.04843 13.515625 144.6582 13.515625 z M 153.19336 13.515625 C 152.07259 13.515625 151.19845 13.865675 150.57227 14.564453 C 149.94609 15.258693 149.63281 16.160424 149.63281 17.267578 L 149.63281 17.410156 C 149.63281 18.521848 149.94609 19.4249 150.57227 20.119141 C 151.19845 20.813381 152.07719 21.160156 153.20703 21.160156 C 154.32326 21.160156 155.19414 20.813381 155.82031 20.119141 C 156.44649 19.4249 156.75977 18.521848 156.75977 17.410156 L 156.75977 17.267578 C 156.75977 16.160424 156.44649 15.258693 155.82031 14.564453 C 155.19414 13.865675 154.31867 13.515625 153.19336 13.515625 z M 130.54883 13.652344 L 130.54883 21.017578 L 132.85547 21.017578 L 132.85547 13.652344 L 130.54883 13.652344 z M 145.24219 15.285156 C 145.48721 15.285156 145.69999 15.334399 145.87695 15.429688 C 146.05845 15.524976 146.20492 15.657653 146.31836 15.830078 L 146.31836 18.919922 C 146.20039 19.078735 146.05064 19.198253 145.86914 19.275391 C 145.69217 19.352529 145.47808 19.390625 145.22852 19.390625 C 144.8156 19.390625 144.52071 19.223817 144.34375 18.892578 C 144.17132 18.556802 144.08594 18.09114 144.08594 17.492188 L 144.08594 17.347656 C 144.08594 16.726016 144.17592 16.228176 144.35742 15.851562 C 144.53892 15.474949 144.83381 15.285156 145.24219 15.285156 z M 153.19336 15.285156 C 153.65165 15.285156 153.97676 15.467077 154.17188 15.830078 C 154.36699 16.188542 154.46484 16.668626 154.46484 17.267578 L 154.46484 17.410156 C 154.46484 18.022721 154.36699 18.505448 154.17188 18.859375 C 153.97676 19.213301 153.65624 19.390625 153.20703 19.390625 C 152.7442 19.390625 152.41386 19.216576 152.21875 18.867188 C 152.02818 18.513261 151.93359 18.027258 151.93359 17.410156 L 151.93359 17.267578 C 151.93359 16.673163 152.02818 16.193079 152.21875 15.830078 C 152.41386 15.467077 152.73961 15.285156 153.19336 15.285156 z M 122.2168 17.878906 L 123.0332 17.878906 L 123.0332 19.029297 C 122.91523 19.174497 122.76284 19.292062 122.57227 19.382812 C 122.38169 19.473563 122.17219 19.519531 121.94531 19.519531 C 121.71843 19.519531 121.53192 19.455175 121.38672 19.328125 C 121.24606 19.196537 121.17578 19.027085 121.17578 18.818359 C 121.17578 18.546108 121.25852 18.321494 121.42188 18.144531 C 121.58976 17.967568 121.8538 17.878906 122.2168 17.878906 z "
         style="font-style:normal;font-variant:normal;font-weight:900;font-stretch:normal;font-size:13.9392519px;font-family:Roboto;-inkscape-font-specification:'Roboto Heavy';fill:#45b0e5;fill-opacity:1"
         id="path4189"
         d="m 126.73633,10.398438 0,10.61914 2.30859,0 0,-10.61914 -2.30859,0 z m 3.8125,0 0,1.544921 2.30664,0 0,-1.544921 -2.30664,0 z m -23.32617,0.566406 c -1.10716,0 -2.02073,0.254839 -2.74219,0.767578 -0.71693,0.512739 -1.07617,1.185259 -1.07617,2.015625 0,0.853053 0.30275,1.507186 0.90625,1.960937 0.60348,0.449214 1.53084,0.870861 2.7832,1.265625 0.59895,0.213264 1.01468,0.414893 1.24609,0.605469 0.23142,0.190575 0.34571,0.461158 0.34571,0.810547 0,0.308551 -0.11757,0.557471 -0.35352,0.748047 -0.23141,0.190575 -0.58411,0.285156 -1.06055,0.285156 -0.62618,0 -1.09379,-0.122162 -1.40234,-0.367187 -0.30855,-0.245026 -0.46289,-0.652882 -0.46289,-1.22461 l -2.24023,0 -0.0137,0.04102 c -0.0227,1.061779 0.37793,1.876169 1.19922,2.443359 0.82129,0.562652 1.79462,0.84375 2.91992,0.84375 1.12077,0 2.01923,-0.244323 2.69532,-0.734375 0.68063,-0.494589 1.01953,-1.177625 1.01953,-2.048828 0,-0.857591 -0.28569,-1.531432 -0.85742,-2.021484 -0.56719,-0.490052 -1.41376,-0.904458 -2.53907,-1.240235 -0.73054,-0.263176 -1.22838,-0.479918 -1.49609,-0.652343 -0.26317,-0.176964 -0.39453,-0.410771 -0.39453,-0.701172 0,-0.299476 0.13136,-0.551672 0.39453,-0.75586 0.26318,-0.204188 0.62506,-0.30664 1.08789,-0.30664 0.4719,0 0.84166,0.125436 1.10938,0.375 0.26771,0.245025 0.40234,0.56422 0.40234,0.958984 l 2.23242,0 0.0137,-0.04101 c 0.0227,-0.889354 -0.31817,-1.615083 -1.02148,-2.177735 -0.69878,-0.56719 -1.59723,-0.849609 -2.69531,-0.849609 z m 7.99804,2.550781 c -1.10715,0 -1.96291,0.35005 -2.5664,1.048828 -0.60349,0.69424 -0.9043,1.592696 -0.9043,2.695313 l 0,0.15625 c 0,1.107154 0.30081,2.008884 0.9043,2.703125 0.60802,0.69424 1.4697,1.041015 2.58593,1.041015 0.88936,0 1.61968,-0.252194 2.19141,-0.755859 0.57625,-0.508202 0.85602,-1.163657 0.83789,-1.966797 l -0.0137,-0.04102 -2.10352,0 c 0,0.326702 -0.0749,0.5743 -0.22461,0.742188 -0.14974,0.167888 -0.37895,0.251953 -0.6875,0.251953 -0.44921,0 -0.76248,-0.174049 -0.93945,-0.523437 -0.17243,-0.349389 -0.25781,-0.83407 -0.25781,-1.451172 l 0,-0.15625 c 0,-0.598952 0.0854,-1.077083 0.25781,-1.435547 0.17697,-0.358464 0.48432,-0.539063 0.91992,-0.539063 0.31309,0 0.5469,0.111646 0.70118,0.333985 0.15428,0.2178 0.23046,0.502173 0.23046,0.851562 l 2.10352,0 0.0137,-0.04102 c 0.0181,-0.898428 -0.25243,-1.609045 -0.81055,-2.13086 -0.55811,-0.521815 -1.30355,-0.783203 -2.23828,-0.783203 z m 7.06446,0 c -0.97103,0 -1.75192,0.227889 -2.3418,0.681641 -0.58985,0.449214 -0.86767,1.010088 -0.83594,1.68164 l 0.0137,0.04102 2.22461,0.0059 c 0,-0.263176 0.0644,-0.455612 0.19141,-0.578125 0.13159,-0.12705 0.32862,-0.191406 0.5918,-0.191406 0.30854,0 0.53448,0.08407 0.67968,0.251953 0.14974,0.167888 0.22461,0.409568 0.22461,0.722656 l 0,0.523438 -0.83593,0 c -1.11623,0 -1.94901,0.200307 -2.49805,0.599609 -0.54451,0.394764 -0.81641,0.95696 -0.81641,1.6875 0,0.671553 0.21674,1.209443 0.65235,1.613282 0.44014,0.403839 1.01021,0.605468 1.70898,0.605468 0.44014,0 0.81449,-0.08866 1.12305,-0.265625 0.30854,-0.1815 0.57125,-0.424502 0.78906,-0.728515 0.0363,0.154275 0.079,0.304018 0.12891,0.449218 0.0544,0.1452 0.1142,0.276556 0.17773,0.394532 l 2.27344,0.0078 c -0.13159,-0.331239 -0.23077,-0.666176 -0.29883,-1.001953 -0.0635,-0.335776 -0.0957,-0.700939 -0.0957,-1.095703 l 0,-2.775391 c 0,-0.843978 -0.28438,-1.493513 -0.85157,-1.947265 -0.56265,-0.453752 -1.29757,-0.681641 -2.20507,-0.681641 z m 16.2539,0 c -0.4356,0 -0.82966,0.105727 -1.18359,0.314453 -0.35393,0.204189 -0.65209,0.489883 -0.89258,0.857422 l -0.0879,-1.035156 -2.1582,0 0,7.365234 2.29297,0 0,-5.294922 c 0.11797,-0.136126 0.25852,-0.243175 0.42187,-0.320312 0.16789,-0.07714 0.35901,-0.117188 0.57227,-0.117188 0.34031,0 0.5971,0.08866 0.76953,0.265625 0.17696,0.172426 0.26562,0.470589 0.26562,0.892578 l 0,4.574219 2.30078,0 0,-4.568359 c 0,-1.020942 -0.2049,-1.765058 -0.61328,-2.232422 -0.40383,-0.467365 -0.96603,-0.701172 -1.6875,-0.701172 z m 6.11914,0 c -0.91204,0 -1.61806,0.353325 -2.11718,1.056641 -0.49913,0.703315 -0.74805,1.627398 -0.74805,2.77539 l 0,0.144532 c 0,1.102616 0.24565,1.988603 0.74023,2.660156 0.49913,0.671552 1.20382,1.007812 2.11133,1.007812 0.35393,0 0.66853,-0.06895 0.94531,-0.205078 0.27679,-0.140663 0.51979,-0.343615 0.72852,-0.611328 l 0,0.373047 c 0,0.440139 -0.12543,0.788868 -0.375,1.042969 -0.24956,0.2541 -0.61013,0.380859 -1.08203,0.380859 -0.39023,0 -0.737,-0.03677 -1.04102,-0.109375 -0.30401,-0.06806 -0.6232,-0.175112 -0.95898,-0.320312 l -0.375,1.701171 c 0.37661,0.176964 0.77396,0.317513 1.1914,0.421875 0.41746,0.104363 0.81612,0.158204 1.19727,0.158204 1.14345,0 2.05438,-0.298164 2.73047,-0.892579 0.67609,-0.594414 1.01367,-1.384499 1.01367,-2.36914 l 0,-7.078125 -2.01562,0 -0.15625,0.925781 c -0.21327,-0.340313 -0.46679,-0.601702 -0.76172,-0.783203 -0.29494,-0.186039 -0.63712,-0.279297 -1.02735,-0.279297 z m 8.53516,0 c -1.12077,0 -1.99491,0.35005 -2.62109,1.048828 -0.62618,0.69424 -0.93946,1.595971 -0.93946,2.703125 l 0,0.142578 c 0,1.111692 0.31328,2.014744 0.93946,2.708985 0.62618,0.69424 1.50492,1.041015 2.63476,1.041015 1.11623,0 1.98711,-0.346775 2.61328,-1.041015 0.62618,-0.694241 0.93946,-1.597293 0.93946,-2.708985 l 0,-0.142578 c 0,-1.107154 -0.31328,-2.008885 -0.93946,-2.703125 -0.62617,-0.698778 -1.50164,-1.048828 -2.62695,-1.048828 z m -22.64453,0.136719 0,7.365234 2.30664,0 0,-7.365234 -2.30664,0 z m 14.69336,1.632812 c 0.24502,0 0.4578,0.04924 0.63476,0.144532 0.1815,0.09529 0.32797,0.227965 0.44141,0.40039 l 0,3.089844 c -0.11797,0.158813 -0.26772,0.278331 -0.44922,0.355469 -0.17697,0.07714 -0.39106,0.115234 -0.64062,0.115234 -0.41292,0 -0.70781,-0.166808 -0.88477,-0.498047 -0.17243,-0.335776 -0.25781,-0.801438 -0.25781,-1.40039 l 0,-0.144532 c 0,-0.62164 0.09,-1.11948 0.27148,-1.496094 0.1815,-0.376613 0.47639,-0.566406 0.88477,-0.566406 z m 7.95117,0 c 0.45829,0 0.7834,0.181921 0.97852,0.544922 0.19511,0.358464 0.29296,0.838548 0.29296,1.4375 l 0,0.142578 c 0,0.612565 -0.0979,1.095292 -0.29296,1.449219 -0.19512,0.353926 -0.51564,0.53125 -0.96485,0.53125 -0.46283,0 -0.79317,-0.174049 -0.98828,-0.523437 -0.19057,-0.353927 -0.28516,-0.83993 -0.28516,-1.457032 l 0,-0.142578 c 0,-0.594415 0.0946,-1.074499 0.28516,-1.4375 0.19511,-0.363001 0.52086,-0.544922 0.97461,-0.544922 z m -30.97656,2.59375 0.8164,0 0,1.150391 c -0.11797,0.1452 -0.27036,0.262765 -0.46093,0.353515 -0.19058,0.09075 -0.40008,0.136719 -0.62696,0.136719 -0.22688,0 -0.41339,-0.06436 -0.55859,-0.191406 -0.14066,-0.131588 -0.21094,-0.30104 -0.21094,-0.509766 0,-0.272251 0.0827,-0.496865 0.2461,-0.673828 0.16788,-0.176963 0.43192,-0.265625 0.79492,-0.265625 z" /></g></g></svg>